<svg width="20" height="16" viewBox="0 0 20 16" fill="none" xmlns="http://www.w3.org/2000/svg">
<g clip-path="url(#clip0)">
<path d="M19.2517 0.749508C18.255 -0.250894 16.6373 -0.250894 15.6406 0.749508L6.61445 9.81425L4.35628 7.54967C3.35955 6.54927 1.7419 6.54927 0.745169 7.54967C-0.251563 8.55007 -0.251563 10.1745 0.745169 11.1749L4.80726 15.2537C5.80399 16.2541 7.42164 16.2541 8.41837 15.2537L19.2517 4.38119C20.2484 3.37436 20.2484 1.75313 19.2517 0.749508ZM18.3497 3.47086C18.3497 3.47086 7.68635 14.1761 7.51641 14.3466C7.01968 14.8484 6.20922 14.8484 5.71249 14.3466C5.71249 14.3466 1.62425 10.2421 1.61118 10.2292C1.1504 9.72739 1.16347 8.94251 1.64713 8.45679C2.14386 7.95498 2.95432 7.95498 3.45105 8.45679L6.61118 11.6285L16.5458 1.65663C17.0426 1.15482 17.853 1.15482 18.3497 1.65663C18.8465 2.15843 18.8465 2.96905 18.3497 3.47086Z" fill="#FFC024"/>
</g>
<defs>
<clipPath id="clip0">
<rect width="20" height="16" fill="white"/>
</clipPath>
</defs>
</svg>
