<svg width="480" height="496" viewBox="0 0 480 496" fill="none" xmlns="http://www.w3.org/2000/svg">
<path d="M243.275 321.779L332.639 321.982L434.378 324.515L434.642 332.174L336.233 327.899C326.343 328.24 318.65 337.3 319.007 348.135C319.381 358.965 327.7 367.47 337.59 367.129L435.73 363.745L435.927 369.404L244.632 377.838C231.797 378.283 221.005 365.404 220.51 351.338C220.027 337.278 230.434 322.218 243.275 321.779Z" fill="#9B5B38"/>
<path d="M310.276 348.245C309.793 334.185 319.804 322.421 332.64 321.982L434.378 324.515L434.642 332.174L336.233 327.899C326.343 328.24 318.65 337.3 319.007 348.135C319.381 358.965 327.7 367.47 337.59 367.129L435.73 363.745L435.928 372.92H334.398C321.562 373.349 310.76 362.289 310.276 348.245Z" fill="#9B5B38"/>
<path d="M336.217 327.921L434.62 332.174C425.741 333.608 423.081 342.613 421.845 347.443C419.356 357.206 426.752 362.827 435.708 363.635V363.767L337.568 367.151C327.678 367.492 319.359 358.987 318.985 348.152C318.634 337.322 326.326 328.262 336.217 327.921Z" fill="white"/>
<path d="M397.254 351.87L338.378 353.196L338.39 353.729L397.266 352.403L397.254 351.87Z" fill="#161721"/>
<path d="M316.507 364.03C316.647 364.032 316.785 364.002 316.911 363.943C317.038 363.885 317.15 363.798 317.238 363.69C317.301 363.608 317.345 363.513 317.367 363.412C317.388 363.311 317.388 363.206 317.365 363.106C317.342 363.005 317.297 362.91 317.233 362.829C317.169 362.748 317.088 362.681 316.996 362.635C316.93 362.596 310.578 358.789 309.546 348.113C308.513 337.437 317.09 333.432 317.178 333.394C317.275 333.356 317.362 333.298 317.435 333.223C317.507 333.149 317.563 333.059 317.597 332.961C317.632 332.863 317.644 332.758 317.634 332.654C317.625 332.551 317.592 332.451 317.54 332.361C317.41 332.178 317.22 332.047 317.003 331.99C316.786 331.933 316.557 331.953 316.353 332.047C315.952 332.229 306.677 336.646 307.793 348.24C308.892 359.701 315.732 363.739 316.035 363.904C316.179 363.984 316.342 364.028 316.507 364.03Z" fill="#D9F0FF"/>
<path d="M360.982 346.207L360.974 346.746L404.849 347.427L404.857 346.889L360.982 346.207Z" fill="#161721"/>
<path d="M289.847 361.849C289.743 361.728 279.616 349.619 288.952 336.251C289.029 336.139 289.131 336.047 289.251 335.982C289.37 335.917 289.503 335.881 289.639 335.877L304.578 335.361C304.74 335.356 304.899 335.396 305.04 335.475C305.18 335.554 305.296 335.671 305.375 335.811C305.455 335.951 305.494 336.111 305.488 336.272C305.482 336.433 305.432 336.589 305.342 336.723C305.298 336.789 301.155 343.13 302.683 349.218C303.659 353.077 305.117 356.799 307.024 360.294C307.101 360.425 307.143 360.575 307.145 360.727C307.148 360.879 307.11 361.03 307.036 361.163C306.962 361.296 306.855 361.408 306.724 361.487C306.594 361.566 306.445 361.609 306.293 361.613L290.545 362.162H290.518C290.39 362.162 290.264 362.134 290.148 362.08C290.032 362.026 289.93 361.947 289.847 361.849ZM300.98 349.646C299.71 344.586 301.809 339.553 303.056 337.168L290.144 337.613C282.704 348.685 289.446 358.492 290.924 360.388L304.82 359.904C303.168 356.638 301.88 353.2 300.98 349.652V349.646Z" fill="#D9F0FF"/>
<path d="M437.23 273.725L345.739 271.89L242.132 275.961L241.973 283.768L342.162 277.972C352.244 278.17 360.234 287.312 360.014 298.301C359.788 309.345 351.437 318.13 341.36 317.927L241.33 315.916L241.214 321.685L436.186 325.603C449.268 325.866 460.109 314.46 460.395 300.125C460.686 285.823 450.313 273.989 437.23 273.725Z" fill="#FFC024"/>
<path d="M368.91 298.318C369.195 283.983 358.821 272.148 345.739 271.89L242.132 275.961L241.973 283.768L342.162 277.972C352.244 278.17 360.234 287.312 360.014 298.301C359.788 309.345 351.437 318.13 341.36 317.927L241.33 315.916L241.214 321.685L344.695 323.762C357.777 324.053 368.635 312.647 368.91 298.318Z" fill="#FFC024"/>
<path d="M342.162 277.988L241.973 283.768C251.039 285.093 253.896 294.246 255.215 299.153C257.891 309.043 250.44 314.889 241.33 315.85V315.987L341.359 317.998C351.437 318.202 359.788 309.416 360.014 298.373C360.233 287.307 352.244 278.192 342.162 277.988Z" fill="white"/>
<path d="M255.632 303.676L255.622 304.219L336.36 305.84L336.371 305.296L255.632 303.676Z" fill="#161721"/>
<path d="M366.552 315.086C366.711 315.087 366.866 315.039 366.997 314.949C367.261 314.773 373.404 310.455 374.239 298.466C375.085 286.312 366.591 281.812 366.228 281.626C366.04 281.529 365.821 281.51 365.62 281.575C365.418 281.639 365.251 281.781 365.154 281.969C365.057 282.157 365.039 282.376 365.103 282.577C365.168 282.779 365.309 282.946 365.497 283.043C365.822 283.214 373.415 287.285 372.64 298.356C371.855 309.608 366.151 313.619 366.096 313.658C365.923 313.776 365.804 313.958 365.764 314.163C365.723 314.369 365.766 314.582 365.882 314.757C365.959 314.862 366.06 314.946 366.177 315.004C366.293 315.061 366.422 315.089 366.552 315.086Z" fill="#D9F0FF"/>
<path d="M317.196 296.96L255.218 298.842L255.235 299.386L317.213 297.503L317.196 296.96Z" fill="#161721"/>
<path d="M387.317 310.762L383.223 310.68C382.308 310.666 381.409 310.434 380.601 310.004C379.792 309.574 379.098 308.959 378.575 308.207C378.048 307.467 377.705 306.612 377.575 305.713C377.445 304.814 377.531 303.896 377.827 303.037C378.256 301.763 378.624 300.482 378.926 299.23C379.308 297.46 379.284 295.626 378.855 293.867C378.661 293.015 378.665 292.129 378.867 291.278C379.069 290.428 379.463 289.635 380.02 288.961C380.576 288.275 381.283 287.725 382.085 287.355C382.887 286.984 383.763 286.802 384.646 286.823L387.877 286.884C388.902 286.896 389.905 287.183 390.781 287.715C391.658 288.246 392.376 289.003 392.861 289.906C396.811 297.439 394.377 304.279 392.569 307.686C392.078 308.619 391.339 309.4 390.434 309.942C389.529 310.485 388.493 310.768 387.437 310.762H387.317ZM384.613 288.417C383.971 288.402 383.334 288.535 382.752 288.804C382.169 289.074 381.655 289.473 381.25 289.972C380.848 290.459 380.562 291.033 380.416 291.648C380.269 292.263 380.265 292.904 380.404 293.521C380.891 295.513 380.915 297.59 380.476 299.592C380.168 300.895 379.783 302.224 379.338 303.548C379.125 304.17 379.064 304.833 379.16 305.483C379.255 306.133 379.505 306.751 379.888 307.284C380.266 307.832 380.77 308.28 381.357 308.594C381.943 308.907 382.596 309.076 383.262 309.087L387.35 309.169C388.129 309.189 388.899 308.991 389.572 308.597C390.245 308.203 390.794 307.628 391.157 306.938C392.806 303.812 395.058 297.532 391.449 290.647C391.097 289.997 390.577 289.452 389.943 289.072C389.309 288.691 388.584 288.487 387.844 288.483L384.613 288.417Z" fill="#D9F0FF"/>
<path d="M437.23 373.085L345.739 371.25L242.132 375.321L241.973 383.129L342.162 377.332C352.244 377.53 360.234 386.645 360.014 397.661C359.788 408.705 351.437 417.491 341.36 417.287L241.33 415.276L241.214 421.046L436.186 424.963C449.268 425.227 460.109 413.82 460.395 399.486C460.686 385.178 450.313 373.349 437.23 373.085Z" fill="#D8B184"/>
<path d="M368.91 397.678C369.195 383.343 358.821 371.508 345.739 371.25L242.132 375.321L241.973 383.129L342.162 377.332C352.244 377.53 360.234 386.645 360.014 397.661C359.788 408.705 351.437 417.491 341.36 417.287L241.33 415.276L241.214 421.046L344.695 423.122C357.777 423.414 368.635 412.007 368.91 397.678Z" fill="#D8B184"/>
<path d="M342.162 377.349L241.973 383.129C251.039 384.453 253.896 393.607 255.215 398.513C257.891 408.403 250.44 414.249 241.33 415.211V415.348L341.359 417.359C351.437 417.562 359.788 408.771 360.014 397.733C360.233 386.667 352.244 377.552 342.162 377.349Z" fill="white"/>
<path d="M255.645 403.036L255.635 403.58L336.373 405.2L336.384 404.656L255.645 403.036Z" fill="#161721"/>
<path d="M366.552 414.447C366.711 414.447 366.866 414.399 366.997 414.31C367.261 414.128 373.404 409.815 374.239 397.826C375.085 385.673 366.591 381.173 366.228 380.986C366.135 380.938 366.033 380.909 365.929 380.9C365.825 380.892 365.72 380.903 365.62 380.935C365.52 380.967 365.428 381.018 365.348 381.086C365.268 381.154 365.202 381.236 365.154 381.33C365.106 381.423 365.077 381.524 365.068 381.629C365.059 381.733 365.071 381.838 365.103 381.938C365.135 382.037 365.186 382.13 365.254 382.21C365.322 382.29 365.404 382.356 365.497 382.404C365.822 382.574 373.415 386.645 372.64 397.716C371.855 408.969 366.151 412.974 366.096 413.018C365.923 413.136 365.804 413.318 365.763 413.524C365.723 413.73 365.766 413.943 365.882 414.117C365.959 414.222 366.06 414.307 366.177 414.364C366.293 414.422 366.422 414.45 366.552 414.447Z" fill="#D9F0FF"/>
<path d="M317.219 396.28L255.241 398.162L255.257 398.706L317.236 396.823L317.219 396.28Z" fill="#161721"/>
<path d="M387.317 410.123L383.223 410.04C382.308 410.026 381.409 409.795 380.601 409.365C379.792 408.935 379.098 408.319 378.575 407.568C378.048 406.828 377.705 405.973 377.575 405.073C377.445 404.174 377.531 403.257 377.827 402.398C378.256 401.123 378.624 399.843 378.926 398.59C379.308 396.82 379.284 394.987 378.855 393.228C378.661 392.374 378.665 391.488 378.867 390.636C379.069 389.785 379.463 388.991 380.02 388.316C380.578 387.631 381.285 387.083 382.086 386.713C382.888 386.343 383.763 386.16 384.646 386.178L387.877 386.244C388.902 386.257 389.905 386.544 390.781 387.075C391.658 387.607 392.376 388.363 392.861 389.266C396.811 396.799 394.377 403.639 392.569 407.046C392.077 407.979 391.338 408.758 390.433 409.301C389.528 409.843 388.492 410.128 387.437 410.123H387.317ZM384.613 387.777C383.972 387.763 383.335 387.895 382.753 388.163C382.17 388.432 381.656 388.83 381.25 389.327C380.848 389.815 380.563 390.388 380.416 391.003C380.27 391.618 380.265 392.259 380.404 392.876C380.891 394.87 380.915 396.948 380.476 398.953C380.168 400.255 379.783 401.585 379.338 402.909C379.125 403.53 379.064 404.193 379.16 404.843C379.255 405.493 379.505 406.111 379.888 406.645C380.266 407.192 380.77 407.641 381.357 407.954C381.943 408.268 382.596 408.437 383.262 408.447L387.35 408.529C388.129 408.55 388.899 408.351 389.572 407.957C390.245 407.563 390.794 406.989 391.157 406.299C392.806 403.167 395.058 396.892 391.449 390.008C391.097 389.357 390.577 388.813 389.943 388.432C389.309 388.051 388.584 387.848 387.844 387.843L384.613 387.777Z" fill="#D9F0FF"/>
<path d="M254.182 121.305C254.182 121.305 222.703 161.963 224.84 193.424C226.978 224.885 264.27 199.732 264.27 199.732L267.479 125.277L254.182 121.305Z" fill="#F7AE72"/>
<path d="M211.049 402.832C211.049 402.832 211.324 412.079 205.219 415.018C199.115 417.958 181.147 421.304 188.23 426.87C192.296 430.062 210.466 426.87 215.626 426.579C220.785 426.287 225.758 428.287 229.406 424.617C233.423 420.59 228.165 401.898 228.165 401.898C228.165 401.898 223.84 404.464 219.829 404.579C214.043 404.744 211.049 402.832 211.049 402.832Z" fill="#161721"/>
<path d="M154.806 402.777C154.806 402.777 155.08 412.018 148.976 414.963C142.871 417.908 124.904 421.243 131.992 426.809C136.058 430.002 154.223 426.809 159.383 426.524C164.542 426.238 169.52 428.227 173.169 424.562C177.18 420.529 171.927 401.837 171.927 401.837C171.927 401.837 167.597 404.403 163.586 404.519C157.8 404.683 154.806 402.777 154.806 402.777Z" fill="#161721"/>
<path d="M148.113 387.508C152.685 326.954 153.762 286.093 172.922 259.846C193.895 231.116 250.121 210.797 271.825 209.528C307.177 207.462 323.837 212.726 323.837 212.726C350.376 267.906 308.809 275.23 278.061 276.736C277.045 276.785 276.023 276.845 275.001 276.911C256.385 278.082 223.285 282.812 210.757 301.306C200.84 315.955 193.955 336.514 191.048 389.557C190.787 394.451 188.624 399.05 185.022 402.373C181.419 405.696 176.662 407.481 171.762 407.348C171.762 407.348 146.47 409.282 148.113 387.508Z" fill="#A3CCE5"/>
<path d="M198.301 390.623C197.697 329.899 195.812 298.9 214.038 271.994C225.747 254.703 243.357 241.654 266.374 233.204C282.803 227.16 302.128 223.479 323.81 222.215C359.162 220.149 375.047 215.874 375.047 215.874C403.663 286.516 298.996 271.521 271.748 301.587C259.874 314.702 245.165 339.641 242.258 392.684C241.997 397.577 239.835 402.174 236.234 405.497C232.632 408.82 227.876 410.606 222.978 410.474C222.978 410.474 198.516 412.837 198.301 390.623Z" fill="#A3CCE5"/>
<path d="M198.466 330.971H198.065C198.065 330.608 199.878 294.504 205.95 281.851C213.642 265.835 235.907 249.121 258.913 242.104L259.028 242.495C236.126 249.478 213.972 266.12 206.318 282.021C200.279 294.598 198.488 330.619 198.466 330.971Z" fill="#161721"/>
<path d="M349.953 103.717C349.953 103.717 334.914 78.0037 300.238 85.8937C265.561 93.7836 251.44 129.195 248.956 214.237C248.956 214.237 281.056 213.061 365.393 241.033C375.382 244.33 390.036 241.72 384.91 224.698C375.382 193.062 366.151 129.975 349.953 103.717Z" fill="#FF443C"/>
<path d="M388.108 111.223L352.442 117.926C352.442 117.926 290.078 136.371 272.616 136.513C255.154 136.656 247.934 123.876 247.934 123.876C247.934 123.876 262.017 99.9758 291.529 88.7123C294.382 87.6163 297.293 86.6754 300.249 85.8937C305.359 84.5421 310.557 83.3552 315.754 83.2948C374.629 82.6245 388.108 111.223 388.108 111.223Z" fill="#FF443C"/>
<path d="M388.108 111.223C388.877 114.036 381.404 118.723 371.41 121.701C361.415 124.679 352.689 124.81 351.92 121.997C351.151 119.184 358.624 114.497 368.613 111.519C378.602 108.542 387.317 108.41 388.108 111.223Z" fill="#161721"/>
<path d="M315.694 83.3058C313.825 83.4654 311.948 83.1252 310.255 82.3199C308.561 81.5147 307.112 80.2734 306.056 78.7235L299.347 68.8007L297.402 65.9216L285.957 48.9879L290.963 67.8391L293.974 79.1521L294.831 82.3773C295.166 83.6469 295.018 84.9956 294.416 86.1626C293.814 87.3297 292.801 88.2322 291.573 88.6958H291.529C290.551 91.2617 289.485 96.3 295.672 97.0473C302.935 97.9264 312.996 90.454 315.754 83.2783L315.694 83.3058Z" fill="#F7AE72"/>
<path d="M306.958 41.7354C306.958 41.7354 306.815 45.032 309.842 51.0758C314.265 59.9822 304.265 65.9491 301.001 63.7898C300.6 63.5206 298.012 47.4385 298.012 47.4385L301.056 44.7463L306.958 41.7354Z" fill="#161721"/>
<path d="M299.309 68.4821C299.309 68.5865 299.337 68.6909 299.347 68.8008C300.062 75.0479 294.018 79.1796 294.018 79.1796L293.974 79.1522L290.963 67.8392C292.842 66.7404 295.567 65.4107 297.402 65.9217C298.364 66.1854 299.078 66.9436 299.309 68.4821Z" fill="#161721"/>
<path d="M267.71 55.6197C265.385 43.3892 271.556 31.9389 281.446 30.0544C291.336 28.1698 301.287 36.5597 303.617 48.7957C305.947 61.0317 299.771 72.4765 289.88 74.3611C279.99 76.2456 270.039 67.8557 267.71 55.6197Z" fill="#F7AE72"/>
<path d="M275.325 36.5542C275.951 37.1421 275.292 49.0759 296.924 47.7847C318.557 46.4935 301.001 23.2853 285.314 25.6698C262.66 29.1093 262.913 47.8232 266.083 52.856C269.254 57.8889 275.325 36.5542 275.325 36.5542Z" fill="#161721"/>
<path d="M305.205 16.3623C305.205 16.3623 296.924 24.505 305.353 29.0928C313.782 33.6806 334.348 32.4774 330.788 43.5925C327.227 54.7076 325.332 70.515 335.535 70.515C345.739 70.515 351.799 68.5809 357.3 75.6577C362.8 82.7345 379.756 74.4819 376.531 65.4272C373.305 56.3724 387.058 45.2518 378.86 37.9168C370.662 30.5818 353.189 26.1643 347.046 15.7305C340.903 5.29663 311.941 10.0493 305.205 16.3623Z" fill="#161721"/>
<path d="M293.908 44.598C293.908 44.598 304.265 52.0539 303.04 61.9218C303.04 61.9218 307.002 55.5043 306.727 53.4384C306.452 51.3726 303.716 44.2573 303.716 44.2573L293.908 44.598Z" fill="#161721"/>
<path d="M301.859 51.5538C300.21 53.8779 297.386 54.6197 295.589 53.2021C293.793 51.7846 293.688 48.7517 295.353 46.422C297.018 44.0924 299.826 43.3562 301.622 44.7737C303.419 46.1913 303.523 49.2242 301.859 51.5538Z" fill="#F7AE72"/>
<path d="M356.937 75.7731C354.283 65.7788 348.387 65.3338 342.151 64.8503C339.678 64.6635 337.123 64.4657 334.678 63.6855C334.164 63.5501 333.685 63.3098 333.269 62.9798C332.852 62.6497 332.509 62.2371 332.26 61.7679C331.161 59.5152 332.442 55.9658 333.909 51.878C336.074 45.8946 338.53 39.1091 334.865 33.84C332.835 30.8628 330.177 28.3667 327.079 26.527C323.98 24.6874 320.516 23.549 316.93 23.1918C310.688 23.5874 307.447 22.8842 307.078 21.049C306.71 19.2139 309.623 17.1315 310.705 16.7524C319.447 13.692 329.557 12.4613 344.222 24.0325C355.761 33.1641 354.981 38.3179 353.975 44.8012C353.755 46.2408 353.525 47.7242 353.426 49.3341C353.343 50.6143 353.613 51.5319 354.244 52.2242C355.657 53.7131 358.805 53.6802 361.849 53.6417C365.789 53.5978 369.86 53.5483 370.959 56.6801C371.816 59.1251 370.838 62.0371 369.893 64.8503C368.948 67.6634 368.014 70.46 369.14 72.3666C369.871 73.6083 371.437 74.438 373.926 74.894L373.794 75.6302C371.074 75.1358 369.344 74.1907 368.492 72.7457C367.195 70.5479 368.162 67.6634 369.184 64.614C370.085 61.9162 371.019 59.1196 370.25 56.9218C369.327 54.301 365.701 54.345 361.86 54.3889C358.657 54.4274 355.338 54.4659 353.7 52.7406C353.296 52.2695 352.995 51.7179 352.819 51.1222C352.643 50.5265 352.595 49.9002 352.678 49.2847C352.783 47.6364 353.014 46.1419 353.228 44.6914C354.195 38.4278 354.959 33.4828 343.755 24.6259C329.392 13.2745 319.507 14.4723 310.969 17.4832C309.93 17.8458 307.579 19.6809 307.831 20.9227C307.958 21.549 309.1 22.9556 316.936 22.4666C320.647 22.8263 324.233 23.997 327.441 25.8959C330.65 27.7948 333.402 30.3755 335.502 33.4554C339.381 39.0431 336.75 46.3232 334.634 52.1802C333.206 56.1252 331.969 59.5372 332.936 61.5207C333.14 61.8993 333.421 62.2312 333.761 62.4951C334.1 62.759 334.492 62.9493 334.909 63.0536C337.266 63.8063 339.777 63.9986 342.211 64.1854C348.722 64.6854 354.849 65.1525 357.662 75.6632L356.937 75.7731Z" fill="white"/>
<path d="M293.314 41.153C286.605 41.153 282.298 36.5322 282.248 36.4828L282.754 36.0157C282.803 36.0762 287.946 41.5706 295.677 40.2684L295.787 40.9442C294.97 41.0821 294.143 41.1519 293.314 41.153Z" fill="white"/>
<path d="M274.391 69.1633C272.976 69.5792 271.461 69.4958 270.1 68.9271C267.709 67.9875 265.545 65.8502 264.166 63.0536C261.589 57.8394 262.479 51.878 266.149 49.7626C266.968 49.3128 267.879 49.0566 268.813 49.0138C269.746 48.9709 270.677 49.1425 271.534 49.5154C273.929 50.4549 276.089 52.5922 277.468 55.3889C280.045 60.6031 279.155 66.5645 275.49 68.6798C275.142 68.8801 274.774 69.0422 274.391 69.1633ZM267.402 49.7791C267.045 49.8905 266.702 50.0416 266.38 50.2296C262.929 52.2186 262.11 57.8723 264.556 62.8338C265.874 65.504 267.935 67.548 270.21 68.438C271.012 68.7873 271.883 68.9486 272.758 68.9096C273.632 68.8705 274.486 68.6322 275.254 68.2128C278.71 66.2238 279.528 60.5701 277.078 55.6087C275.759 52.9384 273.699 50.8945 271.424 50.0044C270.148 49.4716 268.729 49.3921 267.402 49.7791Z" fill="#00784D"/>
<path d="M290.792 63.147C289.302 63.4039 287.769 63.1503 286.441 62.4272C284.116 61.2239 282.182 58.8504 281.127 55.9164C279.166 50.422 280.831 44.6089 284.847 42.9167C285.738 42.5625 286.696 42.4117 287.653 42.4754C288.609 42.5391 289.539 42.8156 290.375 43.2848C292.699 44.4881 294.639 46.8561 295.688 49.7956C297.655 55.29 295.99 61.1031 291.974 62.7899C291.594 62.9511 291.198 63.0708 290.792 63.147ZM286.122 43.076C285.745 43.1474 285.376 43.2598 285.023 43.4112C281.243 44.999 279.688 50.5539 281.556 55.7406C282.561 58.5482 284.408 60.8119 286.616 61.9547C287.399 62.393 288.27 62.6514 289.165 62.7113C290.061 62.7712 290.958 62.631 291.792 62.3009C295.573 60.713 297.133 55.1582 295.265 49.9715C294.259 47.1638 292.413 44.9001 290.199 43.7573C288.956 43.0754 287.52 42.8315 286.122 43.065V43.076Z" fill="#00784D"/>
<path d="M276.655 58.8394C276.621 58.8466 276.585 58.8453 276.552 58.8357C276.518 58.8261 276.488 58.8085 276.462 58.7844C276.442 58.764 276.425 58.7396 276.414 58.7127C276.403 58.6859 276.397 58.657 276.397 58.6279C276.397 58.5987 276.403 58.5699 276.414 58.543C276.425 58.5161 276.442 58.4917 276.462 58.4713C276.545 58.3888 278.55 56.3339 282.71 56.1746C282.738 56.1731 282.767 56.1774 282.794 56.1872C282.821 56.1969 282.845 56.212 282.866 56.2314C282.887 56.2509 282.904 56.2744 282.916 56.3005C282.928 56.3266 282.934 56.3548 282.935 56.3834C282.937 56.4123 282.932 56.4411 282.923 56.4684C282.913 56.4956 282.898 56.5207 282.879 56.5421C282.859 56.5635 282.836 56.5809 282.809 56.5933C282.783 56.6057 282.755 56.6127 282.726 56.6141C278.754 56.768 276.798 58.757 276.776 58.7789C276.744 58.8126 276.701 58.8341 276.655 58.8394Z" fill="#00784D"/>
<path d="M278.479 68.427C282.647 67.6253 286.66 66.1599 290.364 64.0864C290.364 64.0864 292.012 70.0313 285.457 71.7016C281.638 72.6687 278.479 68.427 278.479 68.427Z" fill="#DB6B49"/>
<path d="M278.479 68.427C278.479 68.427 280.193 69.3775 283.655 68.7072C287.117 68.0369 290.364 64.0864 290.364 64.0864C290.364 64.0864 283.358 67.5204 278.479 68.427Z" fill="white"/>
<path d="M283.973 52.7516C283.887 52.7436 283.806 52.7091 283.74 52.6529C283.675 52.5967 283.628 52.5215 283.607 52.4378C283.586 52.354 283.592 52.2657 283.623 52.1851C283.654 52.1046 283.709 52.0356 283.781 51.9878C284.587 51.4049 285.564 51.106 286.558 51.1378C287.553 51.1696 288.509 51.5304 289.276 52.1637C289.32 52.1953 289.357 52.2354 289.386 52.2816C289.415 52.3277 289.434 52.3791 289.443 52.4327C289.451 52.4863 289.449 52.5411 289.437 52.594C289.424 52.6468 289.401 52.6966 289.369 52.7406C289.299 52.8226 289.202 52.8773 289.096 52.8954C288.99 52.9135 288.88 52.8937 288.787 52.8395C287.319 52.2854 285.71 52.2332 284.21 52.6911C284.139 52.7347 284.057 52.7557 283.973 52.7516Z" fill="#161721"/>
<path d="M288.056 56.6251C288.276 57.5977 287.88 58.5097 287.177 58.6636C286.474 58.8174 285.732 58.1636 285.529 57.1965C285.325 56.2295 285.71 55.3175 286.408 55.1582C287.106 54.9988 287.864 55.6581 288.056 56.6251Z" fill="#161721"/>
<path d="M269.797 57.6526C269.715 57.6789 269.626 57.6788 269.543 57.6524C269.461 57.6259 269.388 57.5743 269.336 57.5048C269.284 57.4353 269.255 57.3514 269.253 57.2646C269.251 57.1779 269.276 57.0927 269.325 57.0208C269.85 56.1715 270.642 55.5204 271.576 55.1694C272.511 54.8184 273.536 54.7874 274.49 55.0813C274.543 55.0935 274.593 55.1162 274.638 55.1481C274.682 55.18 274.72 55.2203 274.748 55.2669C274.777 55.3134 274.796 55.3651 274.804 55.4191C274.813 55.4731 274.81 55.5282 274.797 55.5813C274.765 55.6838 274.696 55.7713 274.604 55.8277C274.513 55.8842 274.404 55.9059 274.297 55.8889C272.73 55.9363 271.223 56.5025 270.012 57.4988C269.958 57.5716 269.883 57.6255 269.797 57.6526Z" fill="#161721"/>
<path d="M275.05 59.6801C275.6 60.4932 275.6 61.4877 275.012 61.8778C274.424 62.2679 273.484 61.9657 272.913 61.1526C272.341 60.3394 272.363 59.3449 272.951 58.9548C273.539 58.5647 274.479 58.8669 275.05 59.6801Z" fill="#161721"/>
<path d="M376.129 186.606C363.294 205.144 347.409 215.336 313.639 221.49L312.348 199.869C353.514 184.771 358.052 135.662 355.948 123.255C355.848 122.679 355.907 122.087 356.121 121.543C356.334 120.998 356.692 120.523 357.157 120.168C360.3 117.756 368.448 112.866 382.981 112.574C383.607 112.569 384.216 112.772 384.713 113.151C385.211 113.53 385.568 114.064 385.729 114.668C391.861 137.601 391.273 164.733 376.129 186.606Z" fill="#F7AE72"/>
<g opacity="0.3">
<path opacity="0.3" d="M363.03 193.122C362.477 193.124 361.929 193.012 361.42 192.792C358.755 191.655 357.816 187.809 359.332 184.221C360.096 182.275 361.582 180.7 363.481 179.826C364.021 179.587 364.605 179.459 365.196 179.451C365.787 179.442 366.373 179.553 366.92 179.776C369.591 180.914 370.525 184.76 369.014 188.348C368.25 190.295 366.761 191.871 364.86 192.743C364.281 192.988 363.659 193.117 363.03 193.122ZM365.311 180.628C364.833 180.633 364.361 180.73 363.92 180.914C362.309 181.67 361.052 183.018 360.409 184.677C359.146 187.672 359.805 190.831 361.882 191.716C362.287 191.876 362.721 191.954 363.157 191.945C363.593 191.936 364.022 191.839 364.42 191.661C366.031 190.904 367.289 189.556 367.931 187.897C369.195 184.903 368.536 181.743 366.464 180.859C366.108 180.708 365.725 180.63 365.338 180.628H365.311Z" fill="#E69056"/>
</g>
<path d="M312.348 199.869C312.348 199.869 292.309 198.732 287.133 203.028C281.957 207.325 278.6 216.726 282.369 214.742C286.138 212.759 290.265 208.896 290.265 208.896C290.265 208.896 281.847 217.567 284.732 218.66C287.617 219.753 294.858 212.138 294.858 212.138C294.858 212.138 285.666 223.253 288.721 223.402C291.776 223.55 298.699 215.056 298.699 215.056C298.699 215.056 290.556 225.742 294.111 225.83C297.666 225.918 300.782 216.957 303.661 218.045C306.54 219.132 314.787 225.418 318.799 217.781L312.348 199.869Z" fill="#F7AE72"/>
<path d="M290.468 209.039L290.062 208.754C290.15 208.633 292.15 205.875 294.336 205.875H294.402V206.375C292.452 206.336 290.49 208.995 290.468 209.039Z" fill="#E69056"/>
<path d="M295.062 212.292L294.655 212.012C294.732 211.896 296.666 209.138 299.743 208.6L299.831 209.089C296.957 209.572 295.084 212.248 295.062 212.292Z" fill="#E69056"/>
<path d="M298.902 215.199L298.496 214.913C298.6 214.77 300.996 211.44 303.359 211.699L303.304 212.193C301.227 211.968 298.924 215.166 298.902 215.199Z" fill="#E69056"/>
<path d="M290.754 230.698H224.269C223.592 230.699 222.932 230.488 222.382 230.093C221.832 229.699 221.419 229.142 221.203 228.5L207.389 187.243C207.229 186.759 207.186 186.244 207.264 185.74C207.342 185.236 207.539 184.758 207.839 184.346C208.138 183.934 208.532 183.598 208.987 183.368C209.442 183.138 209.946 183.02 210.455 183.023H274.385C275.801 183.02 277.183 183.462 278.334 184.286C279.486 185.11 280.349 186.275 280.803 187.617L293.814 226.473C293.975 226.957 294.018 227.472 293.94 227.975C293.862 228.479 293.665 228.957 293.366 229.369C293.067 229.782 292.675 230.118 292.22 230.349C291.766 230.58 291.263 230.7 290.754 230.698Z" fill="#161721"/>
<path d="M286.583 230.698H220.098C219.421 230.7 218.759 230.489 218.208 230.095C217.657 229.7 217.244 229.143 217.027 228.5L203.246 187.243C203.087 186.759 203.045 186.245 203.124 185.741C203.202 185.238 203.4 184.76 203.699 184.348C203.998 183.936 204.392 183.601 204.846 183.371C205.3 183.14 205.803 183.021 206.312 183.023H270.248C271.664 183.02 273.045 183.462 274.197 184.286C275.348 185.11 276.212 186.275 276.666 187.617L289.677 226.473C289.838 226.959 289.881 227.477 289.801 227.984C289.722 228.49 289.522 228.97 289.219 229.383C288.917 229.796 288.519 230.132 288.061 230.36C287.602 230.589 287.096 230.705 286.583 230.698Z" fill="#161721"/>
<path d="M240 205.506C240 203.941 241.808 203.309 243.385 203.309C244.962 203.309 247.539 205.028 247.522 207.221C247.522 209.594 245.654 209.902 244.077 209.902C242.5 209.902 240 207.501 240 205.506Z" fill="#DEEBE9"/>
<path d="M220.071 224.863H311.04C312.06 224.863 313.038 225.268 313.76 225.99C314.481 226.711 314.886 227.689 314.886 228.709V228.737C314.886 229.255 314.68 229.753 314.313 230.12C313.947 230.487 313.449 230.693 312.93 230.693H220.071V224.863Z" fill="#161721"/>
<path d="M281.853 203.88C281.82 203.754 278.556 191.523 276.451 187.721C274.347 183.919 271.803 183.238 271.775 183.227L271.891 182.815C272.001 182.842 274.638 183.611 276.836 187.512C279.034 191.413 282.149 203.265 282.281 203.77L281.853 203.88Z" fill="#D9F0FF"/>
<path d="M291.71 225.083C289.243 225.083 288.633 223.984 288.606 223.946L283.408 208.44L283.82 208.303L289.001 223.775C289.001 223.775 289.551 224.649 291.71 224.649V225.083Z" fill="#D9F0FF"/>
<path d="M260.616 29.9609C260.616 29.9609 259.638 38.5761 261.61 38.5046C263.583 38.4332 267.583 34.741 275.402 35.5926C283.221 36.4442 292.771 38.4387 298.87 28.3455C304.969 18.2523 291.842 14.9117 291.842 14.9117L260.616 29.9609Z" fill="#A50008"/>
<path d="M240.758 32.3564C240.304 32.3893 239.848 32.3249 239.421 32.1676C238.994 32.0103 238.605 31.7638 238.28 31.4444L237.929 31.0982C237.808 30.9794 237.714 30.8355 237.655 30.6766C237.597 30.5177 237.573 30.3477 237.587 30.1788C237.602 30.0099 237.653 29.8462 237.737 29.6993C237.822 29.5525 237.938 29.426 238.077 29.329L274.677 3.923C275.288 3.49854 276.001 3.24269 276.743 3.18124L313.178 0.00550498C313.418 -0.0159933 313.66 0.0394266 313.867 0.163824C314.075 0.288221 314.237 0.475191 314.331 0.697803C314.434 0.935062 314.454 1.19998 314.389 1.45006C314.323 1.70015 314.175 1.92091 313.969 2.0769L277.979 29.2906C277.525 29.6352 276.981 29.8395 276.413 29.8785L240.758 32.3564Z" fill="#FF443C"/>
<path d="M251.539 60.8339C251.58 60.6539 251.658 60.4841 251.767 60.3348C251.875 60.1854 252.013 60.0595 252.171 59.9646C252.33 59.8697 252.506 59.8078 252.689 59.7825C252.872 59.7572 253.058 59.769 253.237 59.8174C253.597 59.9374 253.898 60.1913 254.077 60.5266C254.256 60.8619 254.299 61.2532 254.198 61.6196C254.157 61.7992 254.08 61.9687 253.972 62.1179C253.864 62.267 253.727 62.3926 253.568 62.4871C253.41 62.5816 253.234 62.643 253.052 62.6677C252.869 62.6923 252.683 62.6797 252.506 62.6305C252.144 62.5139 251.841 62.2617 251.661 61.9268C251.48 61.5919 251.437 61.2003 251.539 60.8339Z" fill="#FFC024"/>
<path d="M252.731 61.2295C251.302 61.1251 251.083 74.8665 251.083 74.8665C251.512 75.0908 251.989 75.2077 252.473 75.2072C252.934 75.0973 253.149 73.2402 253.149 73.2402L253.209 75.1852C253.209 75.1852 254.775 75.2346 255.314 74.8281C255.314 74.8281 254.967 61.3998 252.709 61.2295H252.731Z" fill="#FFC024"/>
<path d="M252.215 60.224L252.006 32.2026C251.863 30.954 252.061 29.6901 252.579 28.5449C253.096 27.3996 253.914 26.4157 254.945 25.6973L272.144 13.7415C272.233 13.6787 272.335 13.6342 272.441 13.6107C272.548 13.5872 272.659 13.585 272.767 13.6044C272.875 13.6239 272.977 13.6644 273.069 13.7238C273.161 13.7831 273.241 13.8601 273.303 13.9503C273.358 14.0382 273.378 14.1436 273.358 14.2454C273.339 14.3473 273.282 14.4381 273.199 14.4997L254.945 27.1917C254.255 27.6702 253.708 28.3274 253.362 29.093C253.017 29.8585 252.886 30.7036 252.984 31.5378L253.22 60.5317L252.215 60.224Z" fill="#FFC024"/>
</svg>
