<svg width="602" height="441" viewBox="0 0 602 441" fill="none" xmlns="http://www.w3.org/2000/svg">
<path d="M301 440.996C467.238 440.996 602 426.83 602 409.356C602 391.881 467.238 377.715 301 377.715C134.762 377.715 0 391.881 0 409.356C0 426.83 134.762 440.996 301 440.996Z" fill="#C8C1E1"/>
<path d="M378.377 131.129L377.968 130.513C388.117 123.736 393.569 115.726 394.17 106.707C395.326 89.3969 378.103 74.0136 377.928 73.8585L378.43 73.3196C378.605 73.4747 396.102 89.103 394.921 106.773C394.292 116.016 388.73 124.218 378.377 131.129Z" fill="#2F1A31"/>
<path d="M308.511 44.6067C310.659 47.3379 316.724 50.159 323.552 47.3951C325.725 46.5173 329.98 44.0065 334.526 46.9868C341.555 51.5798 327.436 61.8312 345.749 64.787C364.062 67.7428 376.4 63.007 387.521 85.8084C398.642 108.61 381.628 134.473 363.135 125.794C344.642 117.114 325.561 108.957 310.691 125.794C295.821 142.63 281.813 91.4261 282.707 85.0409C283.602 78.6557 296.218 78.9496 294.331 69.7801C292.444 60.6105 298.439 55.7114 296.524 52.282C293.857 47.4971 305.921 41.3202 308.511 44.6067Z" fill="#2F1A31"/>
<path d="M358.267 271.825C350.507 318.558 328.139 374.6 323.634 397.161C322.025 405.236 308.907 406.049 309.544 397.161L311.81 233.938C311.81 233.938 369.036 207.095 358.267 271.825Z" fill="#FDAD9B"/>
<path d="M323.634 397.173C323.634 397.173 323.826 404.771 328.968 406.91C334.109 409.049 349.004 410.993 343.438 415.892C340.244 418.693 325.194 416.884 320.942 416.884C316.691 416.884 312.701 418.733 309.544 415.892C306.068 412.765 309.544 397.194 309.544 397.194C309.544 397.194 313.219 399.104 316.511 399.018C321.253 398.876 323.634 397.173 323.634 397.173Z" fill="#2F1A31"/>
<path d="M293.073 245.443C285.313 292.176 289.552 374.6 285.048 397.173C283.439 405.249 270.321 406.061 270.958 397.173C270.958 397.173 240.017 334.921 258.158 237.98C260.809 223.94 303.855 180.713 293.073 245.443Z" fill="#FDAD9B"/>
<path d="M285.056 397.173C285.056 397.173 285.248 404.771 290.39 406.91C295.531 409.049 310.426 410.993 304.859 415.892C301.666 418.693 286.612 416.884 282.364 416.884C278.117 416.884 274.123 418.733 270.966 415.892C267.49 412.765 270.966 397.194 270.966 397.194C270.966 397.194 274.641 399.104 277.933 399.018C282.683 398.876 285.056 397.173 285.056 397.173Z" fill="#2F1A31"/>
<path d="M398.442 216.819C397.822 216.991 397.294 217.399 396.972 217.956C396.651 218.512 396.561 219.173 396.722 219.796L402.089 239.833C402.26 240.453 402.668 240.981 403.225 241.302C403.782 241.624 404.443 241.713 405.066 241.552V241.552C405.686 241.381 406.214 240.973 406.536 240.416C406.857 239.859 406.947 239.198 406.785 238.576L401.415 218.538C401.244 217.919 400.836 217.392 400.28 217.071C399.724 216.75 399.064 216.659 398.442 216.819V216.819Z" fill="#FDAD9B"/>
<path d="M404.466 215.211C403.846 215.382 403.318 215.79 402.996 216.347C402.675 216.904 402.585 217.565 402.746 218.187L408.754 240.593C408.925 241.212 409.333 241.738 409.889 242.06C410.445 242.381 411.105 242.472 411.727 242.311V242.311C412.347 242.14 412.875 241.732 413.197 241.175C413.518 240.619 413.608 239.958 413.447 239.335L407.443 216.93C407.272 216.31 406.864 215.782 406.307 215.461C405.75 215.139 405.088 215.05 404.466 215.211V215.211Z" fill="#FDAD9B"/>
<path d="M402.959 203.118L402.444 203.812C401.983 204.439 401.788 205.223 401.903 205.992C402.017 206.762 402.432 207.455 403.057 207.919L415.717 217.281C416.344 217.742 417.128 217.937 417.898 217.822C418.668 217.708 419.361 217.293 419.826 216.669L420.341 215.975C420.801 215.347 420.996 214.563 420.881 213.793C420.766 213.023 420.352 212.329 419.728 211.863L407.067 202.502C406.44 202.041 405.656 201.847 404.886 201.962C404.116 202.078 403.423 202.494 402.959 203.118Z" fill="#FDAD9B"/>
<path d="M410.478 213.602C409.858 213.774 409.33 214.182 409.008 214.738C408.686 215.295 408.597 215.956 408.758 216.579L413.573 234.542C413.745 235.161 414.152 235.688 414.708 236.009C415.264 236.331 415.924 236.421 416.546 236.261V236.261C417.166 236.09 417.694 235.682 418.016 235.125C418.338 234.568 418.427 233.907 418.266 233.285L413.455 215.321C413.284 214.701 412.875 214.174 412.318 213.852C411.761 213.531 411.1 213.441 410.478 213.602V213.602Z" fill="#FDAD9B"/>
<path d="M386.5 205.486C386.5 205.486 387.623 219.886 393.492 227.822C395.534 230.566 413.095 225.344 413.818 221.588C414.541 217.832 406.034 195.582 406.034 195.582L386.5 205.486Z" fill="#FDAD9B"/>
<path d="M392.483 218.4C391.865 218.572 391.339 218.979 391.018 219.535C390.697 220.091 390.607 220.75 390.768 221.372L395.571 239.294C395.743 239.912 396.15 240.437 396.705 240.757C397.26 241.078 397.919 241.168 398.54 241.009V241.009C399.157 240.837 399.683 240.43 400.003 239.875C400.324 239.32 400.414 238.662 400.255 238.041L395.452 220.114C395.28 219.497 394.873 218.972 394.318 218.651C393.763 218.331 393.104 218.24 392.483 218.4V218.4Z" fill="#FDAD9B"/>
<path d="M386.5 205.486C377.229 180.019 361.203 145.737 340.942 119.482C336.246 113.399 334.367 111.145 331.14 108.002C328.535 105.474 330.025 98.0073 334.31 93.5C338.324 89.2745 345.925 87.7844 347.493 88.9398C350.164 90.8953 353.57 95.1004 358.928 101.796C377.491 125.067 393.431 157.226 407.839 200.326L386.5 205.486Z" fill="#FDAD9B"/>
<path d="M200.65 213.353C201.27 213.525 201.798 213.933 202.12 214.489C202.441 215.046 202.531 215.707 202.37 216.33L196.999 236.367C196.827 236.986 196.418 237.513 195.861 237.833C195.305 238.154 194.644 238.243 194.022 238.082V238.082C193.403 237.91 192.876 237.503 192.554 236.947C192.233 236.391 192.142 235.731 192.302 235.11L197.673 215.072C197.844 214.452 198.253 213.925 198.81 213.603C199.367 213.282 200.028 213.192 200.65 213.353V213.353Z" fill="#FDAD9B"/>
<path d="M194.647 211.745C195.267 211.916 195.795 212.324 196.116 212.881C196.438 213.438 196.528 214.099 196.366 214.721L190.363 237.127C190.191 237.746 189.783 238.274 189.226 238.595C188.669 238.917 188.008 239.007 187.385 238.845V238.845C186.765 238.674 186.237 238.266 185.916 237.709C185.594 237.152 185.504 236.492 185.666 235.869L191.669 213.464C191.841 212.844 192.249 212.316 192.806 211.995C193.363 211.673 194.024 211.584 194.647 211.745Z" fill="#FDAD9B"/>
<path d="M196.15 199.648L196.664 200.346C197.124 200.974 197.318 201.757 197.202 202.527C197.087 203.296 196.672 203.989 196.048 204.453L183.387 213.815C182.76 214.277 181.975 214.471 181.204 214.357C180.434 214.242 179.74 213.827 179.274 213.202L178.76 212.504C178.3 211.877 178.106 211.093 178.222 210.324C178.337 209.554 178.752 208.862 179.376 208.397L192.037 199.036C192.665 198.575 193.449 198.381 194.219 198.496C194.99 198.61 195.683 199.025 196.15 199.648V199.648Z" fill="#FDAD9B"/>
<path d="M188.627 210.136C189.247 210.308 189.775 210.716 190.096 211.272C190.418 211.829 190.508 212.49 190.346 213.113L185.535 231.076C185.364 231.696 184.956 232.223 184.399 232.545C183.842 232.867 183.181 232.956 182.558 232.795V232.795C181.938 232.624 181.41 232.216 181.089 231.659C180.767 231.102 180.677 230.441 180.839 229.819L185.654 211.855C185.825 211.236 186.233 210.709 186.789 210.388C187.345 210.066 188.005 209.976 188.627 210.136V210.136Z" fill="#FDAD9B"/>
<path d="M212.617 202.02C212.617 202.02 211.489 216.419 205.621 224.352C203.579 227.099 186.017 221.874 185.298 218.122C184.58 214.37 193.058 192.115 193.058 192.115L212.617 202.02Z" fill="#FDAD9B"/>
<path d="M206.621 214.933C207.24 215.105 207.766 215.513 208.086 216.069C208.407 216.625 208.497 217.284 208.337 217.905L203.534 235.828C203.367 236.449 202.961 236.978 202.404 237.3C201.847 237.621 201.186 237.709 200.565 237.543C199.947 237.371 199.422 236.963 199.101 236.409C198.78 235.854 198.69 235.195 198.849 234.575L203.652 216.648C203.824 216.031 204.232 215.506 204.787 215.185C205.342 214.864 206 214.774 206.621 214.933Z" fill="#FDAD9B"/>
<path d="M212.617 202.02C221.887 176.553 237.909 142.271 258.174 116.016C262.867 109.933 264.75 107.679 267.976 104.535C270.586 102.004 269.091 94.5371 264.811 90.034C260.792 85.8085 253.192 84.3183 251.624 85.4696C248.953 87.4293 245.547 91.6344 240.188 98.3299C221.626 121.601 205.686 153.76 191.277 196.86L212.617 202.02Z" fill="#FDAD9B"/>
<path d="M271.137 75.6183C271.137 75.6183 243.19 82.6853 228.136 108.634C228.136 108.634 231.346 118.482 238.261 117.739C245.175 116.996 248.634 122.679 252.089 128.353C255.544 134.028 246.551 170.221 243.921 188.164C240.245 213.509 214.393 333.464 230.268 342.985C246.143 352.505 271.362 333.256 292.832 346.585C314.302 359.915 331.132 337.167 343.09 342.985C355.049 348.802 373.231 341.429 373.231 326.434C373.231 314.447 360.521 231.693 351.838 174.52C349.135 156.699 346.786 139.981 346.901 131.44C346.901 131.44 349.123 121.813 358.745 122.185C368.367 122.556 368.861 108.855 368.804 107.001C368.746 105.148 339.464 58.6754 271.137 75.6183Z" fill="#553E93"/>
<path d="M300.073 67.1958L296.328 58.4999L295.241 55.9768L288.85 41.1365L289.957 56.5157L290.626 65.7465L290.814 68.3757C290.93 69.368 290.656 70.3663 290.05 71.1611C289.445 71.9558 288.555 72.4852 287.568 72.638C287.568 72.638 284.602 78.4189 289.299 79.9132C294.813 81.6646 304.304 77.3574 307.502 72.2133C307.49 72.1929 301.952 71.454 300.073 67.1958Z" fill="#FDAD9B"/>
<path d="M294.984 59.2918C294.31 61.4066 290.439 63.1662 290.439 63.1662L289.957 56.4993C291.582 55.9033 295.009 59.2102 294.984 59.2918Z" fill="#2F1A31"/>
<path d="M273.698 43.5779C273.698 33.7347 280.167 25.7532 288.151 25.7532C296.136 25.7532 302.605 33.7347 302.605 43.5779C302.605 53.4211 296.136 61.4067 288.151 61.4067C280.167 61.4067 273.698 53.4252 273.698 43.5779Z" fill="#FDAD9B"/>
<path d="M286.755 43.7494C286.705 43.7369 286.659 43.7126 286.62 43.6785C286.582 43.6444 286.552 43.6015 286.534 43.5534C286.508 43.4747 286.512 43.3891 286.546 43.3135C286.581 43.2379 286.642 43.1778 286.718 43.1452C287.432 42.808 288.238 42.7181 289.008 42.8896C289.779 43.0611 290.47 43.4843 290.974 44.0923C291.034 44.1547 291.068 44.2382 291.068 44.325C291.068 44.4119 291.034 44.4953 290.974 44.5577C290.909 44.613 290.826 44.6433 290.741 44.6433C290.656 44.6433 290.573 44.613 290.508 44.5577C289.449 43.9131 288.208 43.6348 286.975 43.7657C286.902 43.7879 286.824 43.7821 286.755 43.7494Z" fill="#060633"/>
<path d="M289.356 47.3624C289.381 48.1463 288.948 48.7954 288.368 48.8158C287.788 48.8363 287.318 48.2116 287.294 47.4278C287.269 46.6439 287.702 45.9948 288.278 45.9744C288.854 45.954 289.332 46.5786 289.356 47.3624Z" fill="#060633"/>
<path d="M275.017 45.4641C274.966 45.4703 274.915 45.4647 274.867 45.4477C274.819 45.4307 274.775 45.4028 274.739 45.3661C274.678 45.3042 274.644 45.2206 274.644 45.1334C274.644 45.0462 274.678 44.9626 274.739 44.9007C275.272 44.3184 275.983 43.9295 276.761 43.795C277.538 43.6605 278.339 43.7881 279.036 44.1576C279.115 44.1942 279.177 44.2603 279.209 44.342C279.24 44.4236 279.238 44.5142 279.203 44.5945C279.161 44.6681 279.094 44.7245 279.014 44.7543C278.934 44.7841 278.847 44.7853 278.766 44.7578C277.541 44.5647 276.286 44.7814 275.197 45.3743C275.148 45.423 275.085 45.4546 275.017 45.4641V45.4641Z" fill="#060633"/>
<path d="M278.799 47.8116C279.122 48.5302 278.962 49.2977 278.444 49.5304C277.925 49.7631 277.243 49.3753 276.92 48.6567C276.598 47.9382 276.757 47.1747 277.276 46.942C277.794 46.7093 278.476 47.0972 278.799 47.8116Z" fill="#060633"/>
<path d="M274.482 56.8667C272.309 56.0502 270.398 53.67 269.377 50.457C267.707 45.2149 268.879 39.3891 271.991 37.4661C272.542 37.1104 273.17 36.8911 273.823 36.8265C274.475 36.7619 275.134 36.8538 275.744 37.0946C277.917 37.9112 279.828 40.2913 280.849 43.4962C282.516 48.726 281.343 54.5641 278.235 56.4952C277.575 56.9189 276.807 57.1455 276.022 57.1484C275.496 57.1453 274.975 57.05 274.482 56.8667V56.8667ZM280.237 43.7003C279.273 40.671 277.513 38.4296 275.524 37.6989C275.004 37.4975 274.445 37.4204 273.89 37.4735C273.336 37.5267 272.801 37.7087 272.33 38.0051C269.451 39.7892 268.405 45.2884 269.99 50.2529C270.953 53.274 272.714 55.5236 274.703 56.2543C275.222 56.4534 275.78 56.5294 276.334 56.4763C276.887 56.4231 277.421 56.2423 277.892 55.9481C280.751 54.1559 281.821 48.6525 280.237 43.7003V43.7003Z" fill="#6F4975"/>
<g opacity="0.3">
<path opacity="0.3" d="M297.565 40.0954C298.725 45.1823 296.871 50.649 293.424 52.3024C289.977 53.9559 286.244 51.1634 285.084 46.0764C283.925 40.9895 285.779 35.5188 289.226 33.8694C292.673 32.22 296.41 35.0044 297.565 40.0954Z" fill="white"/>
</g>
<g opacity="0.3">
<path opacity="0.3" d="M280.984 43.925C282.148 49.0364 280.6 54.5806 277.529 56.3075C274.458 58.0345 271.023 55.2869 269.859 50.1836C268.695 45.0804 270.243 39.5239 273.318 37.801C276.393 36.0782 279.824 38.8095 280.984 43.925Z" fill="white"/>
</g>
<path d="M288.621 52.3718C286.399 51.2939 284.7 48.8566 283.965 45.6885C282.703 40.2505 284.782 34.3797 288.56 32.5956C289.293 32.2418 290.097 32.0612 290.911 32.0675C291.724 32.0739 292.525 32.2671 293.253 32.6323C295.47 33.7101 297.161 36.1434 297.892 39.3033C299.162 44.7495 297.104 50.6244 293.302 52.3963C292.583 52.7482 291.794 52.9324 290.994 52.9352C290.171 52.9271 289.36 52.7345 288.621 52.3718V52.3718ZM288.83 33.1835C285.297 34.8451 283.394 40.3934 284.59 45.5538C285.272 48.4892 286.885 50.8326 288.903 51.8043C289.545 52.1171 290.25 52.282 290.964 52.287C291.679 52.2919 292.385 52.1367 293.032 51.8328C296.569 50.1712 298.468 44.623 297.271 39.4666C296.589 36.5394 294.984 34.2041 292.971 33.2202C292.33 32.8963 291.623 32.7245 290.904 32.7181C290.186 32.7117 289.476 32.871 288.83 33.1835V33.1835Z" fill="#6F4975"/>
<path d="M280.306 45.8274C280.445 45.8278 280.58 45.7786 280.686 45.6886V45.6886C280.751 45.6314 282.319 44.4148 284.994 44.9251C285.15 44.9509 285.31 44.9163 285.442 44.8283C285.573 44.7403 285.666 44.6056 285.701 44.4515C285.716 44.3748 285.716 44.2958 285.701 44.2191C285.685 44.1424 285.654 44.0696 285.61 44.0049C285.566 43.9403 285.509 43.8851 285.444 43.8426C285.378 43.8001 285.304 43.7712 285.227 43.7575C281.98 43.0757 280.008 44.6924 279.918 44.7577C279.797 44.8614 279.721 45.0085 279.708 45.1673C279.694 45.3261 279.743 45.484 279.845 45.6069C279.899 45.6765 279.97 45.7325 280.05 45.7708C280.13 45.809 280.217 45.8283 280.306 45.8274V45.8274Z" fill="#6F4975"/>
<path d="M285.795 56.6791C284.782 56.6886 283.782 56.4547 282.879 55.9973C282.831 55.9781 282.787 55.9491 282.751 55.9121C282.715 55.8751 282.686 55.8309 282.668 55.7823C282.65 55.7338 282.642 55.682 282.645 55.6302C282.648 55.5785 282.662 55.5279 282.686 55.4818C282.71 55.4358 282.743 55.3952 282.783 55.3627C282.824 55.3302 282.87 55.3065 282.921 55.2931C282.971 55.2798 283.023 55.277 283.074 55.2851C283.125 55.2932 283.174 55.3119 283.218 55.34C286.681 57.1078 290.814 54.3357 290.855 54.3071C290.895 54.2756 290.941 54.2528 290.99 54.2399C291.039 54.227 291.09 54.2244 291.14 54.2322C291.19 54.24 291.238 54.2581 291.281 54.2853C291.324 54.3126 291.36 54.3484 291.389 54.3905C291.417 54.4325 291.436 54.48 291.445 54.5299C291.454 54.5797 291.453 54.6309 291.441 54.6802C291.429 54.7296 291.407 54.7759 291.377 54.8164C291.346 54.8568 291.308 54.8905 291.264 54.9154C291.133 55.0093 288.65 56.6791 285.795 56.6791Z" fill="#2F1A31"/>
<path d="M291.329 56.0378C291.242 56.0381 291.158 56.0075 291.091 55.9514C291.024 55.8953 290.98 55.8174 290.965 55.7316C290.926 55.4101 290.822 55.0998 290.66 54.8192C290.498 54.5386 290.281 54.2935 290.022 54.0986C289.94 54.0457 289.881 53.9628 289.859 53.8675C289.837 53.7722 289.853 53.672 289.904 53.5883C289.956 53.5062 290.038 53.4479 290.133 53.4258C290.227 53.4036 290.327 53.4195 290.41 53.4699C290.759 53.7204 291.054 54.0398 291.275 54.4084C291.496 54.7771 291.64 55.1871 291.696 55.6133C291.708 55.7077 291.683 55.8031 291.626 55.8792C291.569 55.9554 291.484 56.0064 291.39 56.0215L291.329 56.0378Z" fill="#2F1A31"/>
<path d="M295.797 33.159C294.233 30.3501 290.345 29.6112 287.22 30.4481C286.1 30.739 285.068 31.2997 284.215 32.0811C280.629 35.4003 272.334 38.0091 269.569 32.7221C266.804 27.4351 270.451 22.1073 276.92 20.4253C283.389 18.7432 287.384 11.1782 298.243 12.4724C306.497 13.4563 311.663 21.5398 313.048 27.6352C314.539 34.1918 311.631 39.3359 308.964 41.1364C306.105 43.0838 302.172 44.6066 295.797 33.159Z" fill="#2F1A31"/>
<path d="M305.129 46.2193C303.495 47.783 301.2 47.9422 300.016 46.5786C298.831 45.215 299.199 42.8389 300.833 41.2712C302.466 39.7035 304.761 39.5484 305.946 40.9119C307.13 42.2755 306.767 44.6557 305.129 46.2193Z" fill="#FDAD9B"/>
<path d="M361.763 67.653C361.007 67.5305 343.197 64.6359 339.709 61.6883C337.561 59.8592 337.724 57.1974 337.879 54.5886C337.989 52.8249 338.1 51 337.471 49.4649C336.013 45.8722 328.976 46.403 328.894 46.4111L328.833 45.6722C329.147 45.6477 336.487 45.0965 338.145 49.1873C338.827 50.8775 338.712 52.7881 338.602 54.6335C338.447 57.1525 338.304 59.5326 340.17 61.1249C343.483 63.9378 361.661 66.8936 361.844 66.9222L361.763 67.653Z" fill="#2F1A31"/>
<path d="M271.464 34.2777C271.35 34.2328 268.572 33.2039 267.38 30.5094C266.604 28.7702 266.665 26.7616 267.56 24.5325C269.218 20.4049 272.942 19.6333 276.23 18.9107C277.37 18.698 278.494 18.4033 279.591 18.0289C282.491 16.951 288.576 14.0606 288.646 14.032L288.96 14.6974C288.899 14.7301 282.781 17.6328 279.849 18.7229C278.718 19.1095 277.56 19.4138 276.385 19.6333C273.118 20.3274 269.761 21.0459 268.246 24.8101C267.429 26.8514 267.368 28.6559 268.054 30.1991C269.128 32.6079 271.729 33.5714 271.729 33.5795L271.464 34.2777Z" fill="#2F1A31"/>
<path d="M267.682 182.84C267.682 180.023 270.561 178.169 273.4 178.169C276.238 178.169 279.342 179.676 279.587 182.485C279.947 186.604 276.32 188.87 272.599 188.87C269.757 188.858 267.682 185.661 267.682 182.84Z" fill="#FFBA41"/>
<path d="M312.015 177.492C312.015 174.671 314.874 172.817 317.732 172.817C320.591 172.817 323.675 174.324 323.916 177.132C324.275 181.252 320.648 183.522 316.928 183.522C314.094 183.522 312.015 180.309 312.015 177.492Z" fill="#FFBA41"/>
<path d="M247.168 303.253C247.168 300.436 250.047 298.582 252.886 298.582C255.724 298.582 258.824 300.084 259.069 302.893C259.428 307.017 255.802 309.283 252.081 309.283C249.247 309.295 247.168 306.074 247.168 303.253Z" fill="#FFBA41"/>
<path d="M271.905 269.469C271.905 266.652 274.764 264.798 277.623 264.798C280.482 264.798 283.561 266.305 283.806 269.114C284.165 273.233 280.539 275.499 276.818 275.499C273.98 275.499 271.905 272.29 271.905 269.469Z" fill="#FFBA41"/>
<path d="M290.696 308.556C290.696 305.739 293.579 303.885 296.414 303.885C299.248 303.885 302.356 305.392 302.601 308.201C302.956 312.32 299.313 314.586 295.613 314.586C292.775 314.602 290.696 311.377 290.696 308.556Z" fill="#FFBA41"/>
<path d="M334.698 294.724C334.698 291.903 337.581 290.049 340.415 290.049C343.25 290.049 346.358 291.556 346.603 294.365C346.962 298.484 343.315 300.754 339.615 300.754C336.772 300.754 334.698 297.541 334.698 294.724Z" fill="#FFBA41"/>
<path d="M285.374 141.213C285.374 138.392 288.233 136.543 291.092 136.543C293.951 136.543 297.034 138.045 297.275 140.854C297.635 144.974 294.008 147.244 290.287 147.244C287.453 147.244 285.374 144.03 285.374 141.213Z" fill="#FFBA41"/>
<path d="M269.156 106.875C269.156 104.053 272.015 102.2 274.874 102.2C277.733 102.2 280.817 103.706 281.058 106.515C281.417 110.635 277.79 112.905 274.07 112.905C271.235 112.921 269.156 109.692 269.156 106.875Z" fill="#FFBA41"/>
<path d="M317.577 120.8C317.577 117.983 320.461 116.13 323.295 116.13C326.129 116.13 329.237 117.636 329.478 120.445C329.838 124.565 326.211 126.83 322.49 126.83C319.619 126.83 317.577 123.621 317.577 120.8Z" fill="#FFBA41"/>
<path d="M300.106 211.406C300.106 208.585 302.985 206.731 305.823 206.731C308.662 206.731 311.762 208.238 312.007 211.047C312.366 215.166 308.739 217.436 305.019 217.436C302.184 217.436 300.106 214.223 300.106 211.406Z" fill="#FFBA41"/>
<path d="M328.743 224.013C328.743 221.192 331.626 219.343 334.461 219.343C337.295 219.343 340.403 220.845 340.648 223.654C341.003 227.773 337.381 230.043 333.656 230.043C330.822 230.043 328.743 226.826 328.743 224.013Z" fill="#FFBA41"/>
<path d="M259.077 229.851C259.077 227.034 261.936 225.181 264.795 225.181C267.654 225.181 270.737 226.687 270.978 229.492C271.337 233.611 267.711 235.881 263.99 235.881C261.156 235.881 259.077 232.672 259.077 229.851Z" fill="#FFBA41"/>
<path d="M301.547 251.942C301.547 249.121 304.431 247.272 307.265 247.272C310.099 247.272 313.207 248.774 313.452 251.583C313.808 255.702 310.165 257.972 306.465 257.972C303.626 257.972 301.547 254.763 301.547 251.942Z" fill="#FFBA41"/>
<path d="M375.301 276.156C374.939 276.259 374.632 276.501 374.448 276.829C374.264 277.157 374.217 277.545 374.317 277.908L377.613 289.588C377.717 289.95 377.96 290.257 378.288 290.441C378.617 290.626 379.006 290.673 379.369 290.572V290.572C379.732 290.469 380.04 290.227 380.224 289.898C380.409 289.568 380.455 289.18 380.353 288.816L377.058 277.136C376.954 276.774 376.711 276.467 376.382 276.284C376.053 276.1 375.664 276.054 375.301 276.156Z" fill="#FDAD9B"/>
<path d="M378.806 275.164C378.443 275.268 378.136 275.511 377.952 275.839C377.768 276.168 377.721 276.556 377.821 276.92L381.497 289.984C381.601 290.346 381.844 290.653 382.172 290.838C382.501 291.022 382.89 291.069 383.253 290.968V290.968C383.615 290.863 383.921 290.62 384.104 290.292C384.288 289.963 384.334 289.575 384.233 289.212L380.558 276.148C380.454 275.787 380.212 275.481 379.884 275.296C379.556 275.112 379.168 275.065 378.806 275.164V275.164Z" fill="#FDAD9B"/>
<path d="M377.829 268.101L377.531 268.51C377.269 268.882 377.164 269.343 377.241 269.792C377.317 270.241 377.569 270.642 377.94 270.906L385.418 276.287C385.791 276.55 386.253 276.654 386.703 276.578C387.153 276.501 387.554 276.25 387.819 275.879L388.113 275.47C388.244 275.286 388.337 275.078 388.387 274.858C388.437 274.638 388.443 274.41 388.406 274.188C388.368 273.965 388.286 273.752 388.166 273.561C388.046 273.37 387.889 273.204 387.705 273.074L380.223 267.693C379.851 267.432 379.39 267.328 378.942 267.404C378.494 267.481 378.094 267.731 377.829 268.101V268.101Z" fill="#FDAD9B"/>
<path d="M382.31 274.184C381.947 274.287 381.639 274.53 381.454 274.859C381.27 275.188 381.224 275.577 381.325 275.94L384.282 286.412C384.385 286.774 384.627 287.081 384.955 287.265C385.284 287.449 385.672 287.496 386.034 287.396V287.396C386.398 287.293 386.705 287.05 386.889 286.721C387.074 286.392 387.12 286.003 387.019 285.64L384.066 275.168C383.962 274.806 383.719 274.499 383.39 274.315C383.061 274.13 382.673 274.084 382.31 274.184V274.184Z" fill="#FDAD9B"/>
<path d="M371.046 270.171C371.046 270.171 369.004 278.034 372.483 282.627C373.709 284.219 383.919 281.027 384.327 278.822C384.736 276.618 382.036 269.742 382.036 269.742L371.046 270.171Z" fill="#FDAD9B"/>
<path d="M371.818 277.124C371.456 277.228 371.15 277.47 370.967 277.798C370.783 278.126 370.737 278.513 370.838 278.875L373.786 289.327C373.89 289.688 374.132 289.994 374.46 290.177C374.789 290.361 375.176 290.407 375.538 290.307V290.307C375.9 290.203 376.206 289.961 376.389 289.633C376.573 289.305 376.619 288.917 376.519 288.555L373.57 278.104C373.466 277.742 373.224 277.437 372.896 277.253C372.567 277.07 372.18 277.023 371.818 277.124Z" fill="#FDAD9B"/>
<path d="M384.278 270.559C384.241 254.702 385.43 231.917 391.274 213.402C392.63 209.116 393.21 207.499 394.358 205.123C395.281 203.208 392.957 199.407 389.698 197.774C386.639 196.263 382.163 196.958 381.53 197.921C380.456 199.554 379.43 202.53 377.854 207.282C372.336 223.797 370.053 244.679 370.813 271.261L384.278 270.559Z" fill="#FDAD9B"/>
<g opacity="0.5">
<path opacity="0.5" d="M377.127 235.502H377.009C375.783 235.416 374.877 233.938 374.999 232.207C375.122 230.476 376.224 229.145 377.45 229.227C377.776 229.264 378.089 229.382 378.358 229.57C378.628 229.758 378.846 230.011 378.993 230.305C379.353 230.987 379.514 231.756 379.459 232.525C379.404 233.294 379.136 234.032 378.683 234.657C378.506 234.907 378.274 235.114 378.004 235.261C377.734 235.407 377.434 235.49 377.127 235.502V235.502ZM375.591 232.236C375.493 233.62 376.159 234.836 377.049 234.902C377.282 234.902 377.511 234.845 377.716 234.736C377.921 234.627 378.096 234.47 378.226 234.277C378.599 233.746 378.82 233.123 378.866 232.476C378.912 231.829 378.781 231.181 378.487 230.603C378.385 230.394 378.235 230.214 378.047 230.077C377.86 229.941 377.642 229.852 377.413 229.819C376.527 229.762 375.689 230.872 375.591 232.268V232.236Z" fill="#E08B65"/>
</g>
<path d="M407.468 404.105C407.468 404.105 407.337 409.266 403.845 410.719C400.353 412.173 390.237 413.487 394.019 416.802C396.187 418.709 406.41 417.476 409.297 417.476C412.185 417.476 414.892 418.733 417.057 416.802C419.418 414.679 417.057 404.105 417.057 404.105C417.057 404.105 414.566 405.404 412.328 405.33C409.081 405.261 407.468 404.105 407.468 404.105Z" fill="#2F1A31"/>
<path d="M433.904 403.738C433.904 403.738 433.777 408.899 430.285 410.352C426.793 411.805 416.677 413.12 420.455 416.435C422.624 418.338 432.846 417.109 435.733 417.109C438.621 417.109 441.329 418.366 443.493 416.435C445.854 414.312 443.493 403.738 443.493 403.738C443.493 403.738 441.002 405.036 438.764 404.963C435.517 404.893 433.904 403.738 433.904 403.738Z" fill="#2F1A31"/>
<path d="M444.616 268.877C444.559 271.445 430.636 272.466 413.418 271.87C396.2 271.274 382.444 268.604 382.502 266.04C382.559 263.476 396.343 260.116 413.561 260.732C430.779 261.349 444.677 266.297 444.616 268.877Z" fill="#2F1A31"/>
<path d="M440.402 196.084C440.402 196.084 436.999 186.437 414.537 186.286C382.142 186.09 385.499 215.501 382.502 266.019C382.502 266.019 410.935 255.813 444.633 268.224C444.633 268.236 447.451 216.673 440.402 196.084Z" fill="#FF8548"/>
<path d="M453.479 195.643L438.466 205.135C438.466 205.135 399.291 208.487 388.852 206.98C383.196 206.164 378.385 201.232 378.385 201.232C378.385 201.232 382.559 184.644 417.878 185.196C441.909 185.592 453.479 195.643 453.479 195.643Z" fill="#FF8548"/>
<path d="M422.338 185.383C418.895 189.303 412.025 191.916 408.664 190.777C404.478 189.364 406.132 186.878 406.671 186.286C407.994 184.857 408.403 183.812 408.431 182.13V181.721L408.464 179.651L408.525 175.757L408.587 171.821L408.787 158.757L413.622 172.005L414.439 174.262L415.599 177.443L417.265 181.999C418.192 184.53 422.309 185.375 422.338 185.383Z" fill="#FDAD9B"/>
<path d="M453.479 195.643C454.998 197.79 452.76 202.032 448.484 205.119C444.208 208.205 439.499 208.964 437.992 206.817C436.485 204.67 438.711 200.428 442.987 197.341C447.263 194.255 451.963 193.495 453.479 195.643Z" fill="#2F1A31"/>
<path d="M458.768 277.242C459.13 277.346 459.437 277.589 459.621 277.917C459.806 278.246 459.853 278.635 459.752 278.998L456.436 290.678C456.334 291.041 456.092 291.348 455.763 291.533C455.435 291.717 455.046 291.764 454.683 291.662C454.32 291.559 454.013 291.317 453.828 290.988C453.644 290.659 453.597 290.27 453.699 289.907L456.995 278.226C457.046 278.045 457.133 277.876 457.25 277.728C457.367 277.58 457.512 277.457 457.677 277.366C457.841 277.274 458.023 277.216 458.21 277.195C458.397 277.174 458.587 277.19 458.768 277.242V277.242Z" fill="#FDAD9B"/>
<path d="M455.263 276.254C455.626 276.358 455.932 276.601 456.116 276.93C456.3 277.259 456.346 277.647 456.244 278.01L452.568 291.074C452.463 291.436 452.22 291.741 451.891 291.925C451.563 292.108 451.175 292.155 450.812 292.054V292.054C450.45 291.951 450.143 291.709 449.958 291.381C449.774 291.053 449.727 290.665 449.828 290.302L453.503 277.238C453.607 276.875 453.85 276.567 454.18 276.383C454.51 276.199 454.899 276.152 455.263 276.254V276.254Z" fill="#FDAD9B"/>
<path d="M456.24 269.191L456.534 269.6C456.8 269.97 456.908 270.43 456.836 270.88C456.763 271.33 456.515 271.733 456.146 272L448.676 277.381C448.303 277.644 447.842 277.748 447.393 277.672C446.944 277.595 446.543 277.344 446.278 276.973L445.98 276.565C445.718 276.192 445.613 275.731 445.69 275.282C445.766 274.833 446.017 274.432 446.389 274.168L453.867 268.787C454.237 268.533 454.692 268.433 455.135 268.508C455.578 268.584 455.974 268.829 456.24 269.191V269.191Z" fill="#FDAD9B"/>
<path d="M451.759 275.266C452.122 275.37 452.428 275.613 452.612 275.942C452.796 276.271 452.842 276.659 452.74 277.022L449.787 287.494C449.683 287.856 449.44 288.162 449.111 288.346C448.782 288.53 448.393 288.575 448.031 288.474V288.474C447.668 288.371 447.362 288.129 447.178 287.8C446.995 287.472 446.949 287.084 447.05 286.722L450.003 276.25C450.106 275.887 450.349 275.58 450.678 275.395C451.007 275.211 451.396 275.164 451.759 275.266V275.266Z" fill="#FDAD9B"/>
<path d="M463.023 271.261C463.023 271.261 465.065 279.12 461.586 283.717C460.36 285.309 450.15 282.117 449.742 279.912C449.333 277.708 452.029 270.833 452.029 270.833L463.023 271.261Z" fill="#FDAD9B"/>
<path d="M462.251 278.214C462.613 278.318 462.919 278.56 463.102 278.888C463.286 279.216 463.332 279.603 463.231 279.965L460.283 290.417C460.179 290.778 459.937 291.084 459.609 291.268C459.28 291.451 458.893 291.498 458.531 291.397V291.397C458.169 291.293 457.863 291.051 457.68 290.723C457.496 290.395 457.45 290.008 457.551 289.645L460.499 279.194C460.603 278.833 460.845 278.527 461.173 278.343C461.502 278.16 461.889 278.113 462.251 278.214V278.214Z" fill="#FDAD9B"/>
<path d="M449.791 271.649C449.828 255.792 448.639 233.007 442.791 214.492C441.439 210.206 440.859 208.589 439.711 206.213C438.788 204.298 441.112 200.497 444.371 198.864C447.43 197.353 451.702 197.468 452.539 199.011C453.462 200.713 454.639 203.62 456.215 208.372C461.733 224.887 464.016 245.769 463.252 272.351L449.791 271.649Z" fill="#FDAD9B"/>
<g opacity="0.5">
<path opacity="0.5" d="M456.942 236.592C456.633 236.579 456.331 236.496 456.06 236.348C455.789 236.2 455.555 235.991 455.378 235.738C454.927 235.113 454.66 234.375 454.606 233.606C454.552 232.837 454.713 232.069 455.071 231.386C455.208 231.085 455.424 230.827 455.696 230.638C455.967 230.449 456.285 230.337 456.615 230.314C456.945 230.29 457.275 230.356 457.57 230.505C457.866 230.653 458.116 230.879 458.294 231.158C458.757 231.777 459.026 232.52 459.066 233.293V233.293C459.136 234.061 458.975 234.833 458.604 235.51C458.457 235.804 458.239 236.056 457.969 236.244C457.699 236.432 457.387 236.55 457.06 236.588L456.942 236.592ZM456.73 230.9H456.656C456.426 230.933 456.208 231.021 456.021 231.158C455.833 231.295 455.683 231.475 455.582 231.684C455.288 232.263 455.157 232.91 455.203 233.558C455.249 234.205 455.47 234.828 455.843 235.359C455.972 235.552 456.146 235.71 456.351 235.819C456.555 235.928 456.784 235.984 457.015 235.983C457.246 235.951 457.465 235.863 457.653 235.726C457.841 235.589 457.992 235.409 458.094 235.199C458.404 234.624 458.538 233.969 458.478 233.317V233.317C458.446 232.664 458.222 232.034 457.832 231.509C457.705 231.333 457.54 231.187 457.349 231.083C457.158 230.979 456.947 230.92 456.73 230.909V230.9Z" fill="#E08B65"/>
</g>
<path d="M386.561 268.922C386.561 280.104 387.558 295.83 390.674 318.616C394.995 350.211 400.096 382.051 402.599 397.316C403.494 402.775 407.272 406.767 411.744 406.988L414.149 407.102C418.989 407.339 422.914 402.285 422.562 396.275L416.489 292.985L415.493 270.412C413.992 269.601 412.402 268.965 410.755 268.518C402.015 266.052 386.553 264.994 386.561 268.922Z" fill="#FFBA41"/>
<path d="M412.36 269.048C412.891 280.169 414.076 294.969 417.31 318.615C421.631 350.211 426.732 382.051 429.236 397.316C430.13 402.774 433.908 406.767 438.38 406.988L440.785 407.102C445.621 407.339 449.55 402.284 449.195 396.275L443.126 292.985L442.182 271.633C442.164 271.156 441.999 270.697 441.711 270.317C441.422 269.937 441.023 269.655 440.569 269.51C434.41 267.55 411.968 260.883 412.36 269.048Z" fill="#FFBA41"/>
<path d="M416.118 311.287C413.614 293.005 404.499 282.121 404.405 282.011L404.735 281.729C404.829 281.839 414.027 292.813 416.546 311.23L416.118 311.287Z" fill="#020202"/>
<path d="M415.595 177.471C415.595 177.471 413.038 181.076 408.419 181.733L408.452 179.664L408.513 175.769L415.595 177.471Z" fill="#56335B"/>
<path d="M401.019 152.547C401.019 152.547 394.582 158.532 398.809 163.607C403.036 168.681 401.019 152.547 401.019 152.547Z" fill="#2F1A31"/>
<path d="M419.397 175.001C419.397 175.001 431.139 170.257 431.139 159.516C431.139 154.752 429.652 152.641 427.014 150.808C414.063 141.777 419.397 175.001 419.397 175.001Z" fill="#2F1A31"/>
<path d="M398.613 162.276C399.659 154.335 406.218 148.648 413.263 149.571C420.308 150.493 425.18 157.683 424.135 165.628C423.089 173.572 416.534 179.255 409.485 178.329C402.436 177.402 397.572 170.217 398.613 162.276Z" fill="#FDAD9B"/>
<path d="M410.829 162.321C410.782 162.291 410.746 162.248 410.725 162.197C410.705 162.146 410.701 162.09 410.714 162.037C410.727 161.984 410.757 161.936 410.798 161.9C410.84 161.865 410.892 161.843 410.947 161.839C411.568 161.748 412.201 161.866 412.747 162.175C413.293 162.485 413.72 162.967 413.961 163.545C413.991 163.608 413.996 163.679 413.973 163.745C413.951 163.811 413.904 163.865 413.843 163.896C413.78 163.921 413.711 163.923 413.647 163.901C413.584 163.88 413.53 163.836 413.496 163.778C412.842 163.043 411.966 162.542 411 162.353C410.941 162.363 410.88 162.352 410.829 162.321V162.321Z" fill="#060633"/>
<path d="M411.96 165.644C411.797 166.244 411.311 166.636 410.874 166.518C410.437 166.399 410.22 165.815 410.384 165.215C410.547 164.615 411.033 164.223 411.47 164.342C411.907 164.46 412.123 165.044 411.96 165.644Z" fill="#060633"/>
<path d="M401.178 161.525C401.145 161.517 401.114 161.501 401.089 161.478C401.064 161.455 401.046 161.426 401.035 161.394C401.014 161.332 401.012 161.265 401.03 161.202C401.048 161.139 401.086 161.083 401.137 161.043C401.329 160.88 401.551 160.758 401.791 160.684C402.032 160.611 402.285 160.588 402.534 160.616C402.784 160.644 403.025 160.724 403.243 160.849C403.461 160.974 403.65 161.143 403.8 161.345C403.838 161.398 403.859 161.461 403.859 161.527C403.859 161.592 403.838 161.655 403.8 161.708C403.785 161.731 403.765 161.751 403.741 161.766C403.718 161.78 403.692 161.79 403.664 161.794C403.637 161.798 403.609 161.796 403.582 161.788C403.556 161.78 403.531 161.767 403.51 161.749C403.18 161.554 402.813 161.432 402.432 161.39C402.051 161.347 401.665 161.386 401.301 161.504C401.264 161.527 401.22 161.534 401.178 161.525V161.525Z" fill="#060633"/>
<path d="M403.555 164.199C403.633 164.815 403.334 165.362 402.885 165.423C402.436 165.485 402.011 165.015 401.934 164.403C401.856 163.79 402.158 163.239 402.603 163.178C403.049 163.117 403.482 163.578 403.555 164.199Z" fill="#060633"/>
<path d="M402.746 169.91C405.491 170.576 408.324 170.8 411.139 170.572C411.139 170.572 410.498 174.63 406.063 173.817C403.481 173.344 402.746 169.91 402.746 169.91Z" fill="white"/>
<path d="M397.372 155.001C398.454 156.45 399.851 158.05 403.392 157.373C406.933 156.695 407.807 154.923 407.807 154.923C408.255 155.714 408.921 156.36 409.725 156.785C410.529 157.209 411.438 157.395 412.344 157.32C415.566 157.103 415.987 155.789 415.987 155.789C415.987 155.789 416.395 158.736 419.254 159.414C422.113 160.092 417.518 163.599 422.423 164.313C425.964 164.811 425.425 156.964 426.687 152.559C428.415 146.562 422.105 142.01 419.254 144.055C416.869 145.762 415.035 142.973 409.861 142.557C403.641 142.055 405.826 147.223 403.326 146.725C397.592 145.582 394.239 150.8 397.372 155.001Z" fill="#2F1A31"/>
<path d="M424.241 165.717C422.934 166.534 421.276 166.273 420.533 165.109C419.789 163.946 420.251 162.325 421.554 161.496C422.856 160.667 424.518 160.937 425.258 162.104C425.997 163.272 425.544 164.885 424.241 165.717Z" fill="#FDAD9B"/>
<path d="M431.735 152.523C431.675 152.523 431.616 152.509 431.563 152.482C431.51 152.455 431.464 152.416 431.429 152.367C431.102 151.909 430.653 151.552 430.133 151.336C429.614 151.119 429.044 151.052 428.488 151.143C428.392 151.159 428.293 151.138 428.212 151.083C428.131 151.029 428.075 150.944 428.055 150.849C428.037 150.753 428.058 150.654 428.112 150.573C428.166 150.492 428.25 150.436 428.345 150.416C429.038 150.301 429.749 150.381 430.398 150.648C431.048 150.915 431.609 151.358 432.021 151.926C432.077 152.007 432.099 152.107 432.082 152.204C432.065 152.301 432.011 152.388 431.931 152.445C431.875 152.489 431.807 152.516 431.735 152.523V152.523Z" fill="#2F1A31"/>
<path d="M427.684 150.106C427.654 150.11 427.624 150.11 427.594 150.106C427.499 150.081 427.417 150.021 427.366 149.937C427.316 149.852 427.301 149.752 427.324 149.656C427.505 148.717 427.361 147.744 426.916 146.897C426.887 146.854 426.867 146.806 426.858 146.755C426.848 146.705 426.849 146.653 426.861 146.603C426.873 146.553 426.895 146.506 426.926 146.464C426.957 146.423 426.996 146.389 427.041 146.364C427.085 146.338 427.135 146.323 427.186 146.318C427.238 146.313 427.289 146.318 427.338 146.334C427.387 146.35 427.432 146.376 427.471 146.41C427.509 146.445 427.54 146.486 427.561 146.533C428.099 147.547 428.264 148.717 428.027 149.84C428.005 149.915 427.96 149.981 427.899 150.029C427.837 150.077 427.762 150.103 427.684 150.106Z" fill="#2F1A31"/>
<path d="M402.975 146.182C402.914 146.18 402.854 146.165 402.799 146.137C402.763 146.117 399.267 144.235 396.016 145.345C395.924 145.372 395.825 145.363 395.74 145.319C395.655 145.275 395.59 145.2 395.559 145.11C395.528 145.019 395.533 144.92 395.573 144.833C395.613 144.746 395.686 144.678 395.775 144.643C399.34 143.418 403.004 145.402 403.155 145.488C403.226 145.529 403.281 145.591 403.313 145.666C403.345 145.741 403.351 145.825 403.33 145.904C403.31 145.983 403.264 146.053 403.2 146.103C403.136 146.153 403.057 146.181 402.975 146.182V146.182Z" fill="#2F1A31"/>
<path d="M416.583 143.565C416.522 143.566 416.461 143.551 416.406 143.522C416.352 143.492 416.306 143.45 416.273 143.398C415.806 142.731 415.2 142.174 414.496 141.765C414.449 141.743 414.408 141.713 414.373 141.674C414.339 141.636 414.313 141.591 414.297 141.542C414.281 141.493 414.276 141.441 414.281 141.39C414.286 141.339 414.301 141.289 414.327 141.244C414.352 141.2 414.386 141.16 414.427 141.13C414.469 141.099 414.516 141.077 414.566 141.065C414.616 141.053 414.668 141.052 414.719 141.061C414.769 141.071 414.817 141.091 414.86 141.12C415.671 141.588 416.369 142.231 416.902 143.002C416.954 143.085 416.971 143.185 416.95 143.28C416.928 143.376 416.87 143.459 416.787 143.512C416.726 143.55 416.655 143.568 416.583 143.565V143.565Z" fill="#2F1A31"/>
<path d="M120.014 305.465C120.376 305.57 120.682 305.813 120.866 306.142C121.049 306.47 121.096 306.858 120.995 307.221L117.699 318.901C117.596 319.264 117.353 319.571 117.024 319.756C116.695 319.94 116.306 319.987 115.943 319.885V319.885C115.581 319.78 115.275 319.537 115.091 319.209C114.908 318.88 114.862 318.492 114.962 318.129L118.275 306.437C118.381 306.08 118.622 305.779 118.947 305.598C119.272 305.417 119.655 305.369 120.014 305.465V305.465Z" fill="#FDAD9B"/>
<path d="M116.51 304.477C116.872 304.582 117.178 304.825 117.362 305.154C117.545 305.483 117.591 305.87 117.49 306.233L113.815 319.297C113.712 319.659 113.47 319.966 113.141 320.149C112.813 320.333 112.425 320.379 112.063 320.277V320.277C111.7 320.175 111.392 319.934 111.208 319.605C111.023 319.277 110.977 318.888 111.079 318.526L114.754 305.461C114.858 305.099 115.101 304.792 115.43 304.608C115.759 304.424 116.147 304.377 116.51 304.477V304.477Z" fill="#FDAD9B"/>
<path d="M107.264 304.796L107.56 305.207C108.114 305.978 109.189 306.153 109.96 305.599L117.439 300.22C118.21 299.666 118.385 298.592 117.831 297.821L117.535 297.41C116.981 296.64 115.906 296.464 115.135 297.019L107.656 302.397C106.885 302.951 106.71 304.026 107.264 304.796Z" fill="#FDAD9B"/>
<path d="M113.006 303.489C113.368 303.594 113.674 303.837 113.857 304.166C114.041 304.494 114.087 304.882 113.986 305.245L111.034 315.717C110.929 316.078 110.686 316.384 110.357 316.568C110.028 316.751 109.64 316.797 109.277 316.697V316.697C108.915 316.594 108.608 316.352 108.424 316.024C108.24 315.696 108.193 315.308 108.293 314.945L111.25 304.473C111.353 304.11 111.595 303.803 111.925 303.618C112.254 303.434 112.643 303.388 113.006 303.489V303.489Z" fill="#FDAD9B"/>
<path d="M124.27 299.497C124.27 299.497 126.312 307.356 122.832 311.953C121.607 313.545 111.397 310.352 110.989 308.148C110.58 305.943 113.276 299.068 113.276 299.068L124.27 299.497Z" fill="#FDAD9B"/>
<path d="M123.494 306.437C123.856 306.541 124.161 306.783 124.345 307.111C124.529 307.439 124.575 307.826 124.474 308.188L121.526 318.64C121.423 319.001 121.181 319.307 120.854 319.49C120.526 319.674 120.139 319.72 119.778 319.62V319.62C119.416 319.516 119.11 319.274 118.926 318.946C118.741 318.618 118.694 318.231 118.793 317.868L121.746 307.417C121.848 307.055 122.089 306.749 122.417 306.565C122.745 306.381 123.132 306.335 123.494 306.437V306.437Z" fill="#FDAD9B"/>
<path d="M111.038 299.872C111.07 284.015 109.886 261.23 104.038 242.716C102.682 238.429 102.102 236.812 100.958 234.436C100.035 232.521 102.359 228.72 105.618 227.087C108.673 225.573 113.149 226.271 113.786 227.234C114.856 228.867 115.881 231.844 117.462 236.596C122.975 253.11 125.258 273.992 124.499 300.57L111.038 299.872Z" fill="#FDAD9B"/>
<g opacity="0.5">
<path opacity="0.5" d="M118.193 264.815C117.009 264.815 115.971 263.508 115.853 261.83C115.785 261.06 115.947 260.287 116.318 259.61C116.466 259.316 116.684 259.064 116.954 258.876C117.223 258.689 117.536 258.572 117.862 258.536C119.087 258.454 120.19 259.785 120.313 261.516C120.381 262.284 120.22 263.056 119.851 263.733C119.704 264.027 119.485 264.279 119.216 264.467C118.946 264.656 118.634 264.774 118.307 264.811L118.193 264.815ZM117.972 259.124H117.903C117.673 259.155 117.455 259.244 117.267 259.381C117.08 259.517 116.929 259.698 116.829 259.908C116.51 260.481 116.368 261.136 116.42 261.79C116.518 263.17 117.356 264.284 118.242 264.239C118.472 264.206 118.69 264.118 118.878 263.981C119.066 263.844 119.218 263.664 119.32 263.455C119.631 262.879 119.764 262.225 119.704 261.573V261.573C119.631 260.214 118.838 259.124 117.972 259.124Z" fill="#E08B65"/>
</g>
<path d="M87.2358 403.248C87.2358 403.248 87.3623 408.017 90.7971 409.372C94.2318 410.727 104.185 411.928 100.468 414.994C98.3322 416.749 88.2772 415.614 85.4388 415.614C82.6003 415.614 79.9334 416.778 77.822 414.994C75.5022 413.03 77.822 403.26 77.822 403.26C77.822 403.26 80.2724 404.461 82.4778 404.407C85.6593 404.318 87.2358 403.248 87.2358 403.248Z" fill="#2F1A31"/>
<path d="M61.2365 402.909C61.2365 402.909 61.3632 407.674 64.7979 409.033C68.2326 410.393 78.1854 411.593 74.4689 414.655C72.333 416.414 62.278 415.279 59.4395 415.279C56.6011 415.279 53.9343 416.439 51.8228 414.655C49.503 412.695 51.8228 402.925 51.8228 402.925C51.8228 402.925 54.2732 404.122 56.4746 404.069C59.652 403.975 61.2365 402.909 61.2365 402.909Z" fill="#2F1A31"/>
<path d="M50.6955 298.178C50.7527 300.75 64.6753 301.771 81.8938 301.171C99.1122 300.57 112.871 297.904 112.81 295.341C112.749 292.777 98.9733 289.421 81.7712 290.033C64.5691 290.646 50.6384 295.61 50.6955 298.178Z" fill="#2F1A31"/>
<path d="M54.9103 225.397C54.9103 225.397 58.3123 215.75 80.7747 215.599C113.17 215.403 109.812 244.814 112.81 295.328C112.81 295.328 84.3768 285.122 50.6792 297.533C50.6792 297.545 47.8775 245.986 54.9103 225.397Z" fill="#FFBA41"/>
<path d="M41.8331 224.956L56.8421 234.448C56.8421 234.448 96.0165 237.8 106.455 236.294C112.112 235.477 116.923 230.541 116.923 230.541C116.923 230.541 112.749 213.958 77.4299 214.509C53.4033 214.884 41.8331 224.956 41.8331 224.956Z" fill="#FFBA41"/>
<path d="M72.9742 214.692C76.417 218.616 83.2865 221.225 86.6477 220.09C90.8379 218.673 89.1797 216.191 88.6406 215.599C87.3174 214.174 86.909 213.149 86.8845 211.447V211.038L86.8519 208.969L86.7947 205.074L86.7334 201.138L86.5333 188.074L81.6937 201.322L80.8769 203.575L79.717 206.756L78.0507 211.316C77.1195 213.843 73.0027 214.688 72.9742 214.692Z" fill="#FDAD9B"/>
<path d="M41.8331 224.956C40.3138 227.104 42.552 231.345 46.828 234.432C51.104 237.518 55.8129 238.278 57.3199 236.13C58.8269 233.983 56.6011 229.741 52.3251 226.655C48.0491 223.568 43.3524 222.809 41.8331 224.956Z" fill="#2F1A31"/>
<path d="M36.5484 306.555C36.1852 306.658 35.8777 306.901 35.6932 307.23C35.5086 307.559 35.4622 307.948 35.5641 308.311L38.86 319.991C38.9637 320.354 39.2064 320.66 39.5353 320.845C39.8643 321.029 40.2527 321.076 40.6161 320.975V320.975C40.9778 320.871 41.2837 320.628 41.4672 320.299C41.6508 319.97 41.6972 319.582 41.5963 319.22L38.3004 307.539C38.1986 307.177 37.9568 306.869 37.6282 306.685C37.2996 306.5 36.9112 306.454 36.5484 306.555Z" fill="#FDAD9B"/>
<path d="M40.0525 305.567C39.6893 305.67 39.3818 305.913 39.1973 306.242C39.0128 306.571 38.9664 306.96 39.0682 307.323L42.7439 320.387C42.8476 320.749 43.0899 321.054 43.4181 321.238C43.7463 321.421 44.1337 321.468 44.4959 321.367V321.367C44.8591 321.264 45.1666 321.022 45.3511 320.693C45.5356 320.364 45.5821 319.975 45.4802 319.612L41.8046 306.547C41.7018 306.185 41.4596 305.879 41.1312 305.695C40.8027 305.512 40.4148 305.466 40.0525 305.567V305.567Z" fill="#FDAD9B"/>
<path d="M39.0804 298.512L38.7846 298.923C38.2299 299.694 38.4051 300.768 39.1759 301.322L46.6544 306.702C47.4251 307.257 48.4996 307.081 49.0543 306.311L49.3501 305.9C49.9048 305.13 49.7296 304.056 48.9588 303.501L41.4803 298.121C40.7095 297.567 39.6351 297.742 39.0804 298.512Z" fill="#FDAD9B"/>
<path d="M43.5566 304.579C43.1935 304.682 42.8859 304.925 42.7014 305.254C42.5169 305.583 42.4705 305.972 42.5723 306.335L45.5292 316.807C45.6329 317.168 45.8752 317.474 46.2034 317.657C46.5315 317.841 46.919 317.887 47.2813 317.787V317.787C47.6441 317.685 47.9516 317.443 48.1362 317.115C48.3208 316.786 48.3672 316.398 48.2655 316.035L45.3086 305.563C45.2068 305.201 44.965 304.893 44.6364 304.709C44.3078 304.524 43.9195 304.478 43.5566 304.579V304.579Z" fill="#FDAD9B"/>
<path d="M32.2927 300.574C32.2927 300.574 30.2507 308.433 33.7262 313.031C34.9515 314.623 45.1616 311.43 45.57 309.225C45.9784 307.021 43.283 300.146 43.283 300.146L32.2927 300.574Z" fill="#FDAD9B"/>
<path d="M33.0646 307.527C32.7031 307.631 32.3973 307.873 32.2137 308.201C32.0301 308.529 31.9836 308.916 32.0844 309.279L35.0332 319.726C35.1369 320.088 35.379 320.394 35.707 320.578C36.035 320.762 36.4224 320.809 36.7852 320.71V320.71C37.1466 320.606 37.4525 320.364 37.6361 320.036C37.8197 319.708 37.8661 319.321 37.7654 318.959L34.8167 308.507C34.713 308.146 34.4707 307.84 34.1425 307.656C33.8143 307.473 33.4269 307.426 33.0646 307.527V307.527Z" fill="#FDAD9B"/>
<path d="M45.521 300.962C45.4884 285.105 46.6768 262.32 52.5211 243.806C53.877 239.519 54.457 237.902 55.6046 235.522C56.5235 233.611 54.1997 229.806 50.9447 228.194C47.8857 226.679 43.5934 226.798 42.7765 228.341C41.8576 230.043 40.6814 232.95 39.1009 237.702C33.5874 254.216 31.3044 275.099 32.064 301.677L45.521 300.962Z" fill="#FDAD9B"/>
<g opacity="0.5">
<path opacity="0.5" d="M38.3658 265.905H38.2555C37.9288 265.868 37.6165 265.75 37.347 265.562C37.0774 265.373 36.8591 265.121 36.7117 264.827C36.3392 264.149 36.1771 263.376 36.2461 262.606C36.3687 260.879 37.4714 259.544 38.6966 259.63C39.9218 259.716 40.8244 261.194 40.7019 262.925C40.5794 264.656 39.5501 265.905 38.3658 265.905ZM38.5822 260.189C37.7082 260.189 36.9486 261.259 36.8342 262.639C36.7814 263.291 36.9235 263.945 37.2426 264.517C37.3421 264.727 37.4925 264.908 37.6801 265.045C37.8677 265.182 38.0865 265.27 38.3167 265.301C39.203 265.362 40.0403 264.251 40.1383 262.851C40.2363 261.451 39.5665 260.246 38.6761 260.185L38.5822 260.189Z" fill="#E08B65"/>
</g>
<path d="M108.273 297.227C108.318 306.114 107.427 318.624 104.438 336.754C100.293 361.903 95.3712 387.244 92.9534 399.398C92.5242 401.521 91.3953 403.439 89.7473 404.845C88.0992 406.251 86.0272 407.065 83.8623 407.155L81.4609 407.265C80.3263 407.324 79.1921 407.143 78.1324 406.734C77.0728 406.324 76.1116 405.695 75.312 404.889C74.5123 404.082 73.8921 403.115 73.4921 402.052C73.092 400.989 72.9211 399.854 72.9905 398.72L78.4795 316.59L79.3453 298.627C80.8688 297.964 82.4526 297.448 84.0747 297.088C92.7982 295.055 108.256 294.107 108.273 297.227Z" fill="#FF443C"/>
<path d="M82.4737 297.512C82.004 306.355 80.9054 318.126 77.8016 336.946C73.6603 362.091 68.739 387.436 66.3212 399.586C65.8893 401.708 64.7597 403.624 63.1122 405.03C61.4647 406.435 59.3941 407.25 57.2301 407.343L54.8246 407.453C53.69 407.511 52.5559 407.329 51.4966 406.918C50.4373 406.508 49.4765 405.879 48.677 405.072C47.8775 404.265 47.2574 403.299 46.8572 402.236C46.4569 401.173 46.2855 400.038 46.3542 398.904L51.8432 316.774L52.66 299.795C52.7134 299.378 52.8976 298.989 53.186 298.684C53.4744 298.379 53.8522 298.173 54.2651 298.096C60.4157 296.475 82.8208 291.017 82.4737 297.512Z" fill="#FF443C"/>
<path d="M78.9287 331.12L78.5489 331.059C80.9667 316.39 90.1109 307.592 90.2008 307.507L90.4662 307.788C90.3764 307.874 81.3261 316.586 78.9287 331.12Z" fill="#020202"/>
<path d="M79.7047 206.78C79.7047 206.78 82.2573 210.385 86.8763 211.047L86.8437 208.977L86.7865 205.082L79.7047 206.78Z" fill="#56335B"/>
<path d="M94.2971 181.86C94.2971 181.86 100.729 187.841 96.5025 192.92C92.2755 197.999 94.2971 181.86 94.2971 181.86Z" fill="#2F1A31"/>
<path d="M75.9147 204.31C75.9147 204.31 64.1771 199.57 64.1771 188.825C64.1771 184.061 65.6637 181.954 68.2979 180.117C81.2485 171.09 75.9147 204.31 75.9147 204.31Z" fill="#2F1A31"/>
<path d="M96.6986 191.589C95.6571 183.648 89.0981 177.961 82.049 178.884C74.9999 179.806 70.1358 186.996 71.1772 194.937C72.2186 202.877 78.7777 208.568 85.8268 207.642C92.8759 206.715 97.7441 199.53 96.6986 191.589Z" fill="#FDAD9B"/>
<path d="M84.4831 191.609C84.5178 191.589 84.5471 191.56 84.5684 191.526C84.5898 191.492 84.6026 191.453 84.6056 191.413C84.6113 191.345 84.5896 191.276 84.5452 191.224C84.5008 191.171 84.4374 191.138 84.3687 191.132C83.7483 191.043 83.1159 191.163 82.571 191.472C82.0261 191.782 81.5997 192.264 81.3587 192.842C81.3288 192.905 81.3244 192.976 81.3465 193.042C81.3687 193.107 81.4156 193.162 81.4772 193.193C81.5404 193.217 81.6099 193.218 81.6738 193.196C81.7378 193.175 81.7924 193.132 81.8284 193.075C82.4806 192.338 83.3577 191.837 84.3238 191.65C84.38 191.656 84.4364 191.641 84.4831 191.609V191.609Z" fill="#060633"/>
<path d="M83.3518 194.957C83.5151 195.557 84.0011 195.949 84.4381 195.827C84.8751 195.704 85.0957 195.129 84.9323 194.529C84.7689 193.928 84.2829 193.536 83.8459 193.655C83.4089 193.773 83.1884 194.357 83.3518 194.957Z" fill="#060633"/>
<path d="M94.1378 190.838C94.17 190.829 94.1996 190.813 94.2238 190.79C94.2481 190.767 94.2662 190.739 94.2767 190.707C94.2984 190.645 94.3003 190.578 94.282 190.515C94.2637 190.452 94.2261 190.397 94.1746 190.356C93.9843 190.192 93.7622 190.07 93.5223 189.996C93.2824 189.921 93.0297 189.898 92.7802 189.926C92.5307 189.954 92.2896 190.033 92.0721 190.158C91.8545 190.283 91.6651 190.452 91.5158 190.654C91.4761 190.707 91.4546 190.772 91.4546 190.838C91.4546 190.904 91.4761 190.969 91.5158 191.022C91.5311 191.044 91.551 191.063 91.5742 191.078C91.5974 191.092 91.6235 191.101 91.6505 191.105C91.6776 191.108 91.705 191.106 91.7311 191.098C91.7572 191.09 91.7813 191.076 91.8018 191.058C92.132 190.864 92.4991 190.742 92.8797 190.698C93.2602 190.654 93.6456 190.691 94.0112 190.805C94.0474 190.832 94.093 190.844 94.1378 190.838V190.838Z" fill="#060633"/>
<path d="M91.7568 193.508C91.6792 194.128 91.9814 194.671 92.4266 194.733C92.8717 194.794 93.3047 194.324 93.3782 193.716C93.4517 193.108 93.1576 192.553 92.7084 192.491C92.2592 192.43 91.8344 192.891 91.7568 193.508Z" fill="#060633"/>
<path d="M92.5695 199.219C89.824 199.888 86.989 200.111 84.1727 199.881C84.1727 199.881 84.8179 203.939 89.2532 203.147C91.8303 202.661 92.5695 199.219 92.5695 199.219Z" fill="white"/>
<path d="M71.0751 195.027C72.3779 195.843 74.036 195.586 74.7793 194.422C75.5226 193.259 75.0652 191.638 73.7583 190.809C72.4514 189.981 70.7974 190.25 70.0541 191.413C69.3108 192.577 69.7682 194.198 71.0751 195.027Z" fill="#FDAD9B"/>
<path d="M61.9145 183.069C61.8545 183.068 61.7952 183.057 61.7389 183.036C61.6152 182.988 61.5153 182.894 61.461 182.773C61.4067 182.652 61.4024 182.515 61.4489 182.391C62.5884 179.386 65.6351 179.178 65.7658 179.17C65.893 179.171 66.0147 179.221 66.1066 179.309C66.1985 179.397 66.2536 179.516 66.2609 179.643C66.2681 179.77 66.227 179.895 66.1457 179.993C66.0644 180.09 65.9491 180.154 65.8229 180.17C65.0669 180.237 64.3447 180.514 63.7372 180.969C63.1298 181.424 62.6613 182.04 62.3842 182.746C62.3478 182.841 62.2834 182.923 62.1995 182.98C62.1157 183.038 62.0163 183.069 61.9145 183.069V183.069Z" fill="#2F1A31"/>
<path d="M66.407 178.561C66.317 178.563 66.2283 178.539 66.1506 178.494C66.0729 178.449 66.009 178.383 65.9659 178.304C64.8346 176.263 65.439 173.919 65.4635 173.813C65.476 173.745 65.5024 173.68 65.5412 173.623C65.5799 173.565 65.6301 173.517 65.6887 173.479C65.7472 173.442 65.8128 173.418 65.8813 173.407C65.9498 173.397 66.0198 173.4 66.0867 173.418C66.1537 173.436 66.2163 173.467 66.2706 173.511C66.3248 173.554 66.3695 173.608 66.4019 173.669C66.4342 173.73 66.4536 173.798 66.4587 173.867C66.4638 173.936 66.4545 174.005 66.4315 174.071C66.4315 174.111 65.9169 176.112 66.8399 177.814C66.8715 177.872 66.8913 177.935 66.8984 178C66.9054 178.066 66.8995 178.132 66.8809 178.195C66.8623 178.258 66.8314 178.316 66.79 178.367C66.7486 178.418 66.6975 178.461 66.6397 178.492C66.5698 178.536 66.4894 178.56 66.407 178.561V178.561Z" fill="#2F1A31"/>
<path d="M68.2979 180.117C68.2276 179.805 68.1812 179.489 68.1591 179.17C68.0161 177.39 68.2448 173.43 72.4187 170.282C77.9771 166.085 89.9435 174.23 95.8776 173.14C101.812 172.05 103.278 175.998 100.754 178.582C98.23 181.166 95.8776 180.787 95.8776 180.787C95.8776 180.787 101.812 180.546 101.44 183.138C101.068 185.731 94.3175 187.707 88.3711 184.743C82.4247 181.779 76.1189 192.957 71.6264 188.539C67.134 184.122 68.2979 180.117 68.2979 180.117Z" fill="#2F1A31"/>
<path d="M84.6056 170.731C84.6056 170.731 89.0981 171.029 91.4546 170.731C93.8111 170.433 96.8129 172.474 94.3134 174.324C91.814 176.173 84.6056 170.731 84.6056 170.731Z" fill="#2F1A31"/>
<path d="M179.846 307.662C170.73 336.273 165.768 386.701 160.925 400.447C159.189 405.347 151.192 404.563 152.426 399.039C152.426 399.039 144.257 338.008 159.94 299.55C163.334 291.229 192.474 268.036 179.846 307.662Z" fill="#FDAD9B"/>
<path d="M160.925 400.447C160.925 400.447 160.275 406.163 163.236 408.294C166.197 410.425 175.292 413.357 171.225 416.459C168.889 418.244 159.679 415.382 157.02 414.953C154.362 414.524 151.637 415.52 150 413.071C148.203 410.372 152.426 399.031 152.426 399.031C153.581 399.894 154.922 400.475 156.342 400.729C159.332 401.121 160.925 400.447 160.925 400.447Z" fill="#553E93"/>
<path d="M201.291 307.319C195.235 336.787 195.606 387.477 192.237 401.692C191.032 406.779 182.995 406.886 183.661 401.256C183.661 401.256 169.125 341.511 180.667 301.505C183.15 292.854 209.676 266.493 201.291 307.319Z" fill="#FDAD9B"/>
<path d="M192.335 401.256C192.335 401.256 192.744 407.47 195.909 409.254C199.074 411.038 208.447 412.973 204.739 416.508C202.611 418.55 193.144 416.692 190.444 416.562C187.745 416.431 185.159 417.713 183.264 415.455C181.182 412.969 183.636 401.256 183.636 401.256C184.964 401.715 186.353 401.978 187.757 402.036C190.779 402.093 192.335 401.256 192.335 401.256Z" fill="#553E93"/>
<g opacity="0.2">
<path opacity="0.2" d="M163.003 355.249H162.881C162.546 355.233 162.219 355.149 161.918 355.001C161.617 354.854 161.35 354.646 161.133 354.391C160.88 354.096 160.689 353.752 160.572 353.381C160.455 353.01 160.414 352.619 160.451 352.232V352.232C160.492 351.494 160.814 350.799 161.351 350.291C161.888 349.783 162.599 349.5 163.338 349.5C163.673 349.516 164 349.601 164.301 349.748C164.602 349.896 164.869 350.103 165.086 350.358C165.337 350.655 165.527 350.999 165.644 351.369C165.761 351.74 165.803 352.13 165.768 352.518C165.727 353.234 165.421 353.91 164.91 354.414C164.4 354.918 163.72 355.216 163.003 355.249ZM163.199 350.121C162.638 350.153 162.107 350.391 161.711 350.791C161.315 351.191 161.082 351.723 161.055 352.285V352.285C161.025 352.59 161.057 352.897 161.148 353.19C161.239 353.482 161.388 353.753 161.586 353.987C161.75 354.178 161.95 354.333 162.176 354.445C162.401 354.557 162.646 354.622 162.897 354.636C164.033 354.698 165.037 353.718 165.139 352.469C165.169 352.164 165.137 351.856 165.046 351.564C164.955 351.271 164.806 351 164.608 350.766C164.445 350.575 164.245 350.42 164.019 350.309C163.794 350.198 163.548 350.134 163.297 350.121H163.199Z" fill="#E08B65"/>
</g>
<g opacity="0.2">
<path opacity="0.2" d="M189.178 355.682H189.056C188.722 355.665 188.395 355.58 188.094 355.434C187.794 355.287 187.526 355.081 187.308 354.828C187.056 354.531 186.866 354.187 186.748 353.815C186.631 353.444 186.59 353.052 186.626 352.665V352.665C186.666 351.927 186.988 351.232 187.525 350.724C188.062 350.216 188.774 349.933 189.513 349.933C189.847 349.951 190.174 350.036 190.475 350.184C190.775 350.331 191.042 350.537 191.261 350.791C191.512 351.088 191.702 351.431 191.819 351.802C191.936 352.173 191.978 352.563 191.943 352.95C191.901 353.667 191.596 354.342 191.085 354.847C190.575 355.351 189.895 355.649 189.178 355.682ZM189.387 350.546C188.824 350.578 188.293 350.817 187.897 351.217C187.501 351.618 187.268 352.151 187.242 352.714V352.714C187.213 353.018 187.244 353.326 187.336 353.618C187.427 353.911 187.576 354.182 187.773 354.416C187.937 354.607 188.138 354.763 188.364 354.874C188.591 354.985 188.837 355.048 189.088 355.061C190.215 355.122 191.224 354.147 191.326 352.897C191.356 352.592 191.325 352.285 191.234 351.992C191.142 351.7 190.993 351.429 190.796 351.195C190.632 351.004 190.43 350.848 190.204 350.737C189.978 350.626 189.732 350.562 189.48 350.55L189.387 350.546Z" fill="#E08B65"/>
</g>
<path d="M177.044 179.145C177.044 179.145 166.977 175.765 159.646 187.874C154.921 195.68 152.814 191.524 149.101 192.965C145.389 194.406 150.139 200.502 147.468 201.947C144.797 203.392 141.378 203.298 141.08 207.189C140.782 211.08 147.827 210.124 146.087 213.811C144.347 217.497 143.608 217.673 145.54 220.229C147.472 222.784 152.818 220.229 155.048 224.393C157.278 228.557 188.729 229.937 191.298 225.32C193.867 220.702 191.89 218.845 196.052 217.13C200.213 215.415 198.429 210.831 198.576 207.189C198.723 203.547 205.853 201.028 200.654 196.194C195.455 191.361 200.062 187.355 194.712 184.151C189.362 180.946 183.17 177.696 177.044 179.145Z" fill="#2F1A31"/>
<path d="M158.707 218.052C158.707 218.052 176.975 213.778 193.164 218.461C193.164 218.461 203.505 221.319 209.705 227.206C209.705 227.206 208.888 233.738 198.821 237.069C198.821 237.069 201.647 253.147 202.995 264.872C205.147 283.562 221.667 334.227 212.441 341.972C204.681 348.504 198.964 338.579 189.284 343.16C172.679 350.999 166.181 341.617 154.545 342.168C142.293 342.752 133.271 350.215 132.757 328.287C132.45 315.337 136.142 283.337 150.755 235.273C150.755 235.273 144.629 233.566 140.757 226.079C140.757 226.079 151.037 219.722 158.707 218.052Z" fill="#FF8548"/>
<path d="M140.757 226.079C139.687 227.234 141.693 231.137 145.229 234.795C148.766 238.453 152.499 240.482 153.569 239.327C154.639 238.172 152.634 234.265 149.077 230.607C145.519 226.948 141.823 224.924 140.757 226.079Z" fill="#2F1A31"/>
<path d="M176.783 178.741C176.715 178.742 176.649 178.72 176.596 178.678C176.542 178.637 176.505 178.578 176.489 178.512C176.489 178.463 176.183 177.471 174.275 176.879C174.234 176.871 174.196 176.854 174.161 176.829C174.127 176.805 174.099 176.773 174.077 176.737C174.056 176.701 174.042 176.661 174.037 176.619C174.032 176.578 174.036 176.536 174.048 176.495C174.061 176.455 174.081 176.418 174.108 176.386C174.136 176.355 174.17 176.329 174.207 176.311C174.245 176.293 174.287 176.283 174.329 176.282C174.37 176.28 174.412 176.288 174.451 176.304C176.726 176.99 177.065 178.296 177.077 178.345C177.095 178.423 177.082 178.505 177.04 178.573C176.998 178.641 176.93 178.69 176.852 178.708C176.831 178.723 176.808 178.734 176.783 178.741V178.741Z" fill="#2F1A31"/>
<path d="M178.221 178.741C178.155 178.742 178.091 178.721 178.039 178.682C177.986 178.643 177.948 178.589 177.929 178.526C177.91 178.464 177.912 178.397 177.934 178.335C177.957 178.274 177.998 178.222 178.053 178.186C178.176 178.104 181.141 176.247 185.972 177.504C186.011 177.514 186.048 177.531 186.081 177.555C186.113 177.578 186.14 177.609 186.161 177.643C186.181 177.678 186.195 177.716 186.2 177.756C186.206 177.796 186.204 177.836 186.193 177.875C186.183 177.914 186.165 177.951 186.14 177.982C186.116 178.014 186.085 178.041 186.05 178.061C186.015 178.081 185.976 178.093 185.936 178.098C185.896 178.102 185.856 178.099 185.817 178.088C181.263 176.904 178.408 178.676 178.38 178.696C178.332 178.725 178.277 178.74 178.221 178.741V178.741Z" fill="#2F1A31"/>
<path d="M169.154 216.575C171.368 216.007 171.76 215.003 172.364 213.059L174.259 206.976L174.806 205.213L178.041 194.831L178.809 204.931L179.266 210.994L179.401 212.721C179.507 214.129 180.826 216.542 182.448 216.534C182.448 216.534 181.982 219.951 176.187 219.922C171.862 219.886 169.142 216.575 169.154 216.575Z" fill="#FDAD9B"/>
<path d="M174.226 206.821C174.226 206.874 174.251 206.931 174.267 206.984C175.056 210.153 179.34 211.839 179.34 211.839L179.274 211.022L178.817 204.959C177.543 204.768 175.758 204.645 174.815 205.241C174.556 205.403 174.357 205.645 174.251 205.931C174.145 206.217 174.136 206.53 174.226 206.821Z" fill="#DB996B"/>
<path d="M191.429 195.798C191.057 193.471 190.002 191.306 188.4 189.577C186.797 187.849 184.717 186.634 182.424 186.087C180.13 185.54 177.726 185.685 175.515 186.503C173.304 187.322 171.386 188.778 170.002 190.687C168.619 192.595 167.833 194.871 167.744 197.226C167.654 199.582 168.265 201.911 169.5 203.919C170.735 205.927 172.537 207.524 174.68 208.507C176.822 209.491 179.209 209.818 181.537 209.446C183.083 209.2 184.565 208.651 185.899 207.831C187.233 207.012 188.392 205.938 189.31 204.67C190.229 203.403 190.889 201.967 191.252 200.445C191.616 198.923 191.676 197.344 191.429 195.798V195.798Z" fill="#FDAD9B"/>
<path d="M186.193 203.6C183.686 203.994 181.132 203.983 178.629 203.567C178.629 203.567 178.903 207.242 182.934 206.833C185.278 206.625 186.193 203.6 186.193 203.6Z" fill="#DB6B49"/>
<path d="M186.193 203.6C186.193 203.6 185.421 204.482 183.334 204.825C181.247 205.168 178.625 203.6 178.625 203.6C178.625 203.6 183.264 204.078 186.193 203.6Z" fill="white"/>
<path d="M179.385 196.153C179.42 196.138 179.451 196.115 179.476 196.085C179.5 196.055 179.516 196.02 179.523 195.982C179.531 195.95 179.532 195.917 179.526 195.885C179.52 195.853 179.509 195.823 179.491 195.796C179.474 195.768 179.451 195.745 179.424 195.726C179.397 195.708 179.367 195.695 179.336 195.688C178.762 195.522 178.148 195.552 177.594 195.774C177.039 195.996 176.574 196.397 176.273 196.913C176.254 196.939 176.241 196.97 176.234 197.001C176.228 197.033 176.227 197.066 176.233 197.098C176.239 197.13 176.252 197.16 176.27 197.187C176.288 197.214 176.311 197.238 176.338 197.256C176.394 197.287 176.459 197.298 176.521 197.286C176.584 197.274 176.641 197.24 176.681 197.19C177.397 196.584 178.292 196.229 179.229 196.178C179.282 196.189 179.337 196.18 179.385 196.153Z" fill="#060633"/>
<path d="M177.873 199.162C177.947 199.75 178.355 200.183 178.78 200.13C179.205 200.077 179.495 199.554 179.421 198.966C179.348 198.378 178.939 197.946 178.511 197.999C178.082 198.052 177.796 198.574 177.873 199.162Z" fill="#060633"/>
<path d="M188.353 196.035C188.391 196.033 188.428 196.022 188.462 196.004C188.495 195.986 188.523 195.96 188.545 195.929C188.584 195.875 188.599 195.809 188.588 195.743C188.578 195.678 188.541 195.62 188.488 195.582C188.02 195.21 187.442 195.005 186.845 194.998C186.248 194.99 185.665 195.181 185.188 195.541C185.134 195.577 185.096 195.634 185.083 195.698C185.07 195.762 185.083 195.829 185.119 195.884C185.158 195.935 185.214 195.971 185.276 195.984C185.339 195.997 185.405 195.988 185.462 195.957C186.353 195.664 187.318 195.675 188.202 195.99C188.246 196.021 188.299 196.036 188.353 196.035V196.035Z" fill="#060633"/>
<path d="M185.809 198.248C185.654 198.819 185.866 199.375 186.278 199.473C186.691 199.57 187.157 199.211 187.312 198.656C187.467 198.101 187.259 197.529 186.842 197.431C186.425 197.333 185.964 197.668 185.809 198.248Z" fill="#060633"/>
<path d="M179.654 184.726C179.654 184.726 187.728 179.802 191.09 191.756C191.09 191.756 193.266 194.724 188.586 193.985C183.906 193.246 183.91 196.121 180.79 194.83C177.669 193.54 178.257 193.438 176.228 194.675C174.198 195.912 175.738 191.658 169.35 188.388C165.65 186.498 171.984 184.428 179.654 184.726Z" fill="#2F1A31"/>
<path d="M173.761 191.16C173.761 191.16 169.452 194.528 170.342 196.831C171.233 199.134 171.441 200.554 170.191 201.73C168.942 202.906 172.127 204.02 170.494 206.221C168.86 208.422 160.153 206.356 161.28 199.689C163.51 186.457 176.583 185.743 173.761 191.16Z" fill="#2F1A31"/>
<path d="M169.828 200.085C171.237 201.057 172.964 200.901 173.687 199.742C174.41 198.583 173.855 196.851 172.462 195.88C171.069 194.908 169.326 195.063 168.603 196.223C167.88 197.382 168.419 199.113 169.828 200.085Z" fill="#FDAD9B"/>
<path d="M152.854 191.487C152.675 191.487 152.487 191.487 152.295 191.462C152.253 191.462 152.212 191.454 152.174 191.437C152.135 191.42 152.101 191.396 152.072 191.365C152.044 191.335 152.022 191.298 152.009 191.259C151.995 191.219 151.99 191.177 151.993 191.136C151.997 191.094 152.009 191.054 152.028 191.017C152.048 190.98 152.076 190.948 152.109 190.922C152.142 190.896 152.18 190.878 152.22 190.867C152.261 190.857 152.303 190.855 152.344 190.862C155.975 191.152 157.563 188.343 158.878 185.445C160.345 182.203 164.367 180.545 164.535 180.484C164.572 180.469 164.612 180.462 164.652 180.462C164.691 180.462 164.731 180.47 164.768 180.486C164.804 180.501 164.838 180.524 164.866 180.553C164.894 180.581 164.916 180.615 164.931 180.652C164.946 180.689 164.954 180.728 164.953 180.768C164.953 180.808 164.945 180.848 164.929 180.884C164.914 180.921 164.891 180.954 164.863 180.982C164.834 181.01 164.801 181.033 164.764 181.048C164.723 181.048 160.794 182.681 159.43 185.694C158.152 188.511 156.485 191.487 152.854 191.487Z" fill="#2F1A31"/>
<path d="M197.469 295.304L187.924 282.692C205.204 268.591 198.135 235.432 198.045 235.097L209.386 229.578C211.959 234.509 222.508 274.874 197.469 295.304Z" fill="#F18C7E"/>
<path d="M209.705 228.671C209.705 228.671 206.05 241.197 193.842 240.303C183.399 239.543 196.342 229.614 196.342 229.614L209.705 228.671Z" fill="#FF8548"/>
<path d="M192.539 293.953C192.819 294.226 192.979 294.599 192.985 294.99C192.99 295.381 192.84 295.758 192.568 296.039L183.795 305.082C183.522 305.361 183.149 305.521 182.759 305.527C182.368 305.533 181.99 305.385 181.708 305.114C181.428 304.841 181.267 304.468 181.261 304.076C181.254 303.684 181.404 303.306 181.676 303.024L190.452 293.981C190.726 293.701 191.099 293.541 191.49 293.536C191.881 293.53 192.259 293.68 192.539 293.953V293.953Z" fill="#F18C7E"/>
<path d="M189.823 291.331C190.104 291.604 190.265 291.977 190.271 292.368C190.277 292.759 190.128 293.136 189.856 293.418L180.054 303.534C179.781 303.814 179.408 303.974 179.017 303.98C178.626 303.985 178.248 303.835 177.967 303.563C177.687 303.29 177.526 302.918 177.52 302.527C177.514 302.136 177.663 301.758 177.935 301.477L187.737 291.364C188.01 291.085 188.382 290.925 188.773 290.918C189.164 290.912 189.542 291.061 189.823 291.331V291.331Z" fill="#F18C7E"/>
<path d="M194.206 285.35L194.271 285.869C194.331 286.338 194.203 286.812 193.915 287.187C193.626 287.562 193.201 287.807 192.731 287.869L183.244 289.094C182.775 289.153 182.301 289.024 181.927 288.735C181.552 288.445 181.308 288.02 181.247 287.551L181.178 287.032C181.117 286.562 181.246 286.088 181.536 285.713C181.825 285.338 182.251 285.093 182.721 285.032L192.205 283.807C192.674 283.748 193.148 283.877 193.523 284.166C193.898 284.455 194.144 284.881 194.206 285.35V285.35Z" fill="#F18C7E"/>
<path d="M187.112 288.69C187.392 288.962 187.553 289.335 187.559 289.726C187.565 290.117 187.416 290.495 187.144 290.776L179.278 298.884C179.004 299.163 178.631 299.322 178.24 299.328C177.848 299.335 177.471 299.187 177.187 298.917V298.917C176.908 298.642 176.749 298.269 176.743 297.877C176.738 297.486 176.887 297.108 177.159 296.826L185.025 288.722C185.297 288.442 185.67 288.281 186.061 288.275C186.453 288.269 186.83 288.418 187.112 288.69V288.69Z" fill="#F18C7E"/>
<path d="M199.376 290.584C199.376 290.584 197.379 298.778 191.919 301.256C190.028 302.11 182.256 294.148 182.979 291.94C183.701 289.731 189.55 284.771 189.55 284.771L199.376 290.584Z" fill="#F18C7E"/>
<path d="M195.239 296.557C195.519 296.829 195.68 297.201 195.686 297.591C195.692 297.982 195.543 298.359 195.272 298.639L187.422 306.727C187.15 307.007 186.778 307.168 186.387 307.174C185.997 307.18 185.62 307.031 185.339 306.76V306.76C185.059 306.488 184.898 306.116 184.892 305.725C184.886 305.335 185.035 304.958 185.306 304.677L193.156 296.586C193.429 296.306 193.801 296.146 194.192 296.141C194.582 296.135 194.959 296.285 195.239 296.557V296.557Z" fill="#F18C7E"/>
<path d="M179.07 296.443L182.211 281.215C182.003 281.215 159.34 279.712 152.663 263.063C151.1 259.274 150.372 255.192 150.529 251.096C150.685 247.001 151.722 242.986 153.569 239.327C154.647 237.171 143.257 227.328 142.334 229.231C135.677 242.928 134.031 256.021 139.153 268.812C143.518 279.72 152.385 288 164.796 292.764C173.695 296.177 173.659 296.708 179.07 296.443Z" fill="#FDAD9B"/>
<g opacity="0.5">
<path opacity="0.5" d="M144.948 271.735C144.718 271.732 144.49 271.698 144.27 271.633C143.193 271.238 142.314 270.438 141.819 269.404V269.404C140.839 267.542 141.072 265.443 142.338 264.725C142.586 264.59 142.859 264.508 143.14 264.482C143.421 264.457 143.704 264.49 143.972 264.578C145.049 264.971 145.93 265.771 146.422 266.807C147.402 268.669 147.169 270.767 145.903 271.486C145.612 271.65 145.282 271.735 144.948 271.735V271.735ZM143.314 265.068C143.078 265.065 142.846 265.124 142.64 265.239C141.648 265.803 141.521 267.546 142.354 269.13C142.777 270.024 143.531 270.719 144.458 271.065C144.651 271.13 144.855 271.155 145.057 271.139C145.26 271.122 145.458 271.066 145.638 270.971C146.63 270.408 146.757 268.665 145.924 267.081C145.504 266.186 144.751 265.491 143.825 265.145C143.652 265.094 143.473 265.069 143.294 265.072L143.314 265.068Z" fill="#E08B65"/>
</g>
<path d="M177.273 282.533C177.273 282.533 182.44 277.806 186.519 278.222C190.599 278.638 195.504 282.256 192.911 282.533C190.318 282.811 186.928 282.256 186.928 282.256C186.928 282.256 194.132 283.783 193.054 285.314C191.976 286.845 185.703 285.452 185.703 285.452C185.703 285.452 194.132 287.959 192.646 289.07C191.159 290.18 184.759 288.253 184.759 288.253C184.759 288.253 192.519 290.894 190.742 292.148C188.966 293.401 184.351 289.919 183.264 291.45C182.178 292.981 180.136 298.962 175.505 296.459L177.273 282.533Z" fill="#FDAD9B"/>
<path d="M452.441 170.609C452.081 170.721 451.691 170.686 451.357 170.512C451.022 170.337 450.77 170.037 450.657 169.678L447.042 158.099C446.931 157.739 446.966 157.35 447.14 157.016C447.315 156.682 447.614 156.43 447.973 156.315C448.333 156.204 448.722 156.239 449.056 156.414C449.389 156.588 449.64 156.887 449.754 157.246L453.389 168.829C453.444 169.008 453.463 169.196 453.445 169.382C453.427 169.569 453.372 169.75 453.284 169.915C453.196 170.08 453.077 170.227 452.932 170.346C452.787 170.465 452.621 170.554 452.441 170.609V170.609Z" fill="#FDAD9B"/>
<path d="M455.913 169.522C455.553 169.633 455.165 169.597 454.831 169.423C454.498 169.248 454.247 168.95 454.132 168.592L450.048 155.637C449.937 155.278 449.972 154.889 450.147 154.556C450.321 154.222 450.62 153.971 450.979 153.857V153.857C451.339 153.745 451.73 153.78 452.064 153.954C452.399 154.129 452.65 154.429 452.764 154.788L456.824 167.738C456.937 168.096 456.905 168.483 456.735 168.817C456.564 169.151 456.269 169.405 455.913 169.522V169.522Z" fill="#FDAD9B"/>
<path d="M458.964 175.969L458.478 175.793C458.053 175.627 457.711 175.3 457.527 174.884C457.343 174.467 457.331 173.994 457.493 173.568L460.81 164.995C460.975 164.571 461.301 164.229 461.718 164.045C462.134 163.861 462.606 163.848 463.031 164.011L463.505 164.195C463.93 164.359 464.272 164.685 464.457 165.102C464.642 165.518 464.653 165.991 464.489 166.416L461.173 174.989C461.008 175.41 460.683 175.749 460.27 175.933C459.856 176.116 459.387 176.129 458.964 175.969V175.969Z" fill="#FDAD9B"/>
<path d="M459.388 168.445C459.029 168.556 458.64 168.521 458.306 168.346C457.972 168.172 457.721 167.873 457.608 167.514L454.341 157.132C454.23 156.772 454.266 156.383 454.44 156.049C454.614 155.715 454.913 155.463 455.272 155.348V155.348C455.632 155.236 456.022 155.272 456.357 155.447C456.691 155.622 456.943 155.923 457.056 156.282L460.324 166.66C460.435 167.021 460.399 167.411 460.224 167.745C460.049 168.08 459.748 168.331 459.388 168.445V168.445Z" fill="#FDAD9B"/>
<path d="M452.151 177.945C452.151 177.945 446.127 172.49 446.536 166.734C446.679 164.738 456.995 161.835 458.535 163.439C460.074 165.044 461.59 172.295 461.59 172.295L452.151 177.945Z" fill="#FDAD9B"/>
<path d="M448.994 171.711C448.635 171.822 448.246 171.787 447.912 171.612C447.578 171.438 447.327 171.139 447.214 170.78L443.946 160.418C443.834 160.06 443.868 159.671 444.042 159.338C444.216 159.005 444.515 158.755 444.874 158.642C445.233 158.531 445.622 158.566 445.956 158.741C446.289 158.915 446.541 159.214 446.654 159.573L449.921 169.931C450.034 170.29 450 170.679 449.826 171.012C449.652 171.346 449.353 171.597 448.994 171.711V171.711Z" fill="#FDAD9B"/>
<path d="M463.015 170.384C471.665 183.677 485.126 202.102 500.143 214.394C503.623 217.252 504.995 218.277 507.254 219.641C509.075 220.739 509.21 225.193 507.364 228.328C505.632 231.264 501.499 233.117 500.45 232.668C498.669 231.905 496.174 229.957 492.245 226.846C478.592 216.04 465.253 199.803 451.343 177.136L463.015 170.384Z" fill="#FDAD9B"/>
<path d="M506.228 307.662C515.344 336.273 520.306 386.701 525.15 400.447C526.882 405.347 534.882 404.563 533.645 399.039C533.645 399.039 541.813 338.008 526.13 299.55C522.74 291.229 493.601 268.036 506.228 307.662Z" fill="#FDAD9B"/>
<path d="M525.15 400.447C525.15 400.447 525.799 406.163 522.834 408.294C519.869 410.425 510.778 413.357 514.85 416.459C517.186 418.244 526.396 415.382 529.054 414.953C531.713 414.524 534.437 415.52 536.071 413.071C537.872 410.372 533.645 399.031 533.645 399.031C532.491 399.894 531.151 400.476 529.732 400.729C526.739 401.121 525.15 400.447 525.15 400.447Z" fill="#553E93"/>
<path d="M484.783 307.319C490.836 336.787 490.468 387.477 493.837 401.692C495.063 406.779 503.076 406.886 502.414 401.256C502.414 401.256 516.949 341.511 505.403 301.505C502.924 292.854 476.398 266.493 484.783 307.319Z" fill="#FDAD9B"/>
<path d="M493.735 401.256C493.735 401.256 493.327 407.47 490.166 409.254C487.005 411.038 477.628 412.973 481.336 416.508C483.464 418.55 492.927 416.692 495.63 416.562C498.334 416.431 500.919 417.713 502.814 415.455C504.897 412.969 502.443 401.256 502.443 401.256C501.114 401.715 499.726 401.977 498.322 402.036C495.296 402.093 493.735 401.256 493.735 401.256Z" fill="#553E93"/>
<g opacity="0.2">
<path opacity="0.2" d="M523.071 355.249C522.522 355.21 521.993 355.02 521.545 354.701C521.096 354.381 520.745 353.943 520.529 353.437C520.314 352.93 520.243 352.373 520.324 351.828C520.405 351.284 520.635 350.772 520.988 350.35C521.206 350.095 521.473 349.887 521.773 349.74C522.074 349.592 522.402 349.508 522.736 349.492C523.477 349.489 524.19 349.771 524.727 350.28C525.265 350.788 525.586 351.485 525.624 352.224C525.659 352.611 525.617 353.001 525.499 353.372C525.382 353.743 525.193 354.086 524.942 354.383C524.724 354.638 524.457 354.845 524.157 354.993C523.856 355.14 523.528 355.225 523.194 355.241L523.071 355.249ZM522.859 350.113H522.765C522.514 350.126 522.269 350.19 522.043 350.301C521.818 350.412 521.617 350.567 521.454 350.758C521.257 350.992 521.108 351.263 521.016 351.556C520.924 351.848 520.891 352.155 520.919 352.46C521.025 353.71 522.026 354.689 523.161 354.628C523.413 354.614 523.659 354.549 523.885 354.438C524.111 354.326 524.312 354.17 524.476 353.979C524.673 353.745 524.822 353.473 524.913 353.181C525.004 352.889 525.036 352.581 525.007 352.277V352.277C524.978 351.716 524.742 351.186 524.346 350.788C523.949 350.39 523.42 350.152 522.859 350.121V350.113Z" fill="#E08B65"/>
</g>
<g opacity="0.2">
<path opacity="0.2" d="M496.896 355.682C496.347 355.643 495.819 355.453 495.37 355.133C494.922 354.814 494.57 354.376 494.355 353.869C494.139 353.362 494.068 352.806 494.149 352.261C494.23 351.717 494.46 351.205 494.814 350.782C495.032 350.529 495.3 350.323 495.6 350.175C495.9 350.028 496.227 349.943 496.562 349.925C497.3 349.927 498.011 350.211 498.547 350.718C499.084 351.226 499.406 351.919 499.449 352.656C499.484 353.044 499.442 353.435 499.325 353.807C499.208 354.178 499.018 354.522 498.767 354.82C498.549 355.074 498.282 355.281 497.981 355.428C497.681 355.574 497.353 355.658 497.019 355.673L496.896 355.682ZM496.684 350.546H496.59C496.339 350.559 496.094 350.623 495.868 350.734C495.643 350.844 495.443 351 495.279 351.191C495.081 351.424 494.931 351.695 494.839 351.988C494.747 352.28 494.715 352.588 494.744 352.893C494.85 354.142 495.851 355.118 496.986 355.057C497.238 355.044 497.484 354.981 497.71 354.87C497.936 354.759 498.137 354.603 498.301 354.412C498.498 354.177 498.647 353.906 498.738 353.614C498.829 353.322 498.861 353.014 498.832 352.709C498.809 352.144 498.576 351.608 498.179 351.205C497.782 350.802 497.249 350.561 496.684 350.529V350.546Z" fill="#E08B65"/>
</g>
<path d="M553.314 328.287C552.799 350.194 543.778 342.731 531.525 342.168C519.894 341.617 513.396 350.999 496.786 343.16C487.087 338.579 481.406 348.496 473.634 341.972C465.122 334.832 482.692 294.524 486.519 273.111C487.916 273.352 512.959 274.944 535.773 268.256C538.534 267.44 538.717 273.801 541.527 274.05C548.87 304.347 553.547 318.485 553.314 328.287Z" fill="#FF443C"/>
<path d="M508.822 201.293C508.822 201.293 502.957 192.822 507.715 185.371C512.473 177.92 516.259 176.21 519.151 175.957C520.923 175.801 522.896 175.605 524.582 176.087C526.379 176.606 527.033 177.928 528.523 178.749C529.222 179.133 531.513 179.239 532.166 179.533C536.659 181.542 537.827 186.473 539.305 190.087C540.784 193.7 535.409 201.42 532.448 203.306C529.487 205.192 525.775 208.066 520.555 206.94C515.336 205.813 508.822 201.293 508.822 201.293Z" fill="#2F1A31"/>
<path d="M481.565 268.236C482.382 263.655 485.281 224.927 485.281 224.927C481.949 211.014 490.407 205.425 490.407 205.425C504.852 212.28 511.191 212.99 519.253 214.501C530.365 216.583 551.255 231.741 551.255 231.741C545.909 238.249 539.546 238.629 539.546 238.629C540.567 250.807 541.151 261.9 541.413 271.951C542.201 303.134 477.673 289.637 481.565 268.236Z" fill="#553E93"/>
<path d="M551.255 231.725C552.072 233.081 549.279 236.477 545.048 239.311C540.817 242.144 534.429 242.385 533.004 241.67C530.757 240.523 532.363 236.939 539.289 233.032C545.317 229.639 550.451 230.386 551.255 231.725Z" fill="#2F1A31"/>
<path d="M525.456 216.489C523.414 215.472 523.243 214.407 523.059 212.382L522.483 206.033L522.32 204.192L521.34 193.365L518.481 203.077L516.757 208.907L516.267 210.569C516.004 211.352 515.498 212.032 514.824 212.511C514.15 212.989 513.341 213.241 512.514 213.231C512.514 213.231 512.224 217.101 517.893 218.289C522.107 219.175 525.456 216.493 525.456 216.489Z" fill="#FDAD9B"/>
<path d="M522.597 205.878L522.524 206.029C521.086 208.96 516.545 209.703 516.545 209.703L516.782 208.887L518.505 203.057C519.792 203.139 521.564 203.396 522.356 204.176C522.583 204.391 522.73 204.676 522.774 204.985C522.817 205.294 522.755 205.609 522.597 205.878V205.878Z" fill="#DB996B"/>
<path d="M508.083 191.487C508.937 189.291 510.423 187.398 512.353 186.047C514.284 184.695 516.572 183.946 518.928 183.894C521.284 183.843 523.602 184.49 525.59 185.756C527.578 187.021 529.146 188.847 530.096 191.003C531.046 193.159 531.335 195.548 530.927 197.868C530.519 200.188 529.432 202.335 527.803 204.038C526.174 205.741 524.077 206.922 521.777 207.434C519.476 207.945 517.076 207.763 514.879 206.911C513.419 206.345 512.085 205.497 510.954 204.415C509.822 203.333 508.915 202.039 508.283 200.607C507.652 199.174 507.31 197.632 507.275 196.067C507.241 194.502 507.515 192.946 508.083 191.487V191.487Z" fill="#FDAD9B"/>
<path d="M511.571 200.219C513.94 201.131 516.439 201.658 518.975 201.779C518.975 201.779 517.929 205.319 514.074 204.086C511.816 203.367 511.571 200.219 511.571 200.219Z" fill="#DB6B49"/>
<path d="M511.571 200.219C511.571 200.219 512.138 201.244 514.107 201.999C516.075 202.755 518.975 201.779 518.975 201.779C518.975 201.779 514.319 201.301 511.571 200.219Z" fill="white"/>
<path d="M519.78 194.369C519.748 194.347 519.722 194.318 519.705 194.284C519.687 194.25 519.678 194.212 519.677 194.173C519.677 194.141 519.683 194.109 519.695 194.078C519.707 194.048 519.725 194.021 519.748 193.997C519.771 193.974 519.798 193.956 519.828 193.943C519.858 193.931 519.89 193.924 519.922 193.924C520.518 193.881 521.11 194.037 521.607 194.369C522.103 194.7 522.475 195.187 522.663 195.753C522.676 195.784 522.682 195.816 522.682 195.849C522.682 195.882 522.676 195.914 522.663 195.945C522.651 195.975 522.632 196.003 522.609 196.026C522.586 196.049 522.558 196.067 522.528 196.08C522.467 196.099 522.401 196.095 522.342 196.071C522.284 196.046 522.235 196.002 522.205 195.945C521.634 195.201 520.835 194.665 519.931 194.418C519.876 194.419 519.823 194.402 519.78 194.369V194.369Z" fill="#060633"/>
<path d="M520.625 197.627C520.429 198.186 519.939 198.525 519.53 198.382C519.122 198.239 518.959 197.672 519.155 197.113C519.351 196.553 519.841 196.215 520.245 196.357C520.649 196.5 520.821 197.068 520.625 197.627Z" fill="#060633"/>
<path d="M511.04 192.369C511.002 192.359 510.967 192.341 510.938 192.317C510.908 192.292 510.884 192.261 510.868 192.226C510.843 192.165 510.843 192.097 510.867 192.036C510.892 191.975 510.939 191.926 510.999 191.899C511.534 191.633 512.142 191.553 512.727 191.67C513.313 191.788 513.843 192.097 514.233 192.548C514.28 192.596 514.306 192.66 514.306 192.726C514.306 192.792 514.28 192.856 514.233 192.904C514.184 192.944 514.122 192.966 514.058 192.966C513.994 192.966 513.932 192.944 513.882 192.904C513.072 192.433 512.129 192.242 511.199 192.361C511.148 192.38 511.092 192.383 511.04 192.369V192.369Z" fill="#060633"/>
<path d="M513.061 195.059C513.09 195.651 512.767 196.149 512.338 196.174C511.909 196.198 511.521 195.733 511.521 195.141C511.521 194.549 511.811 194.051 512.244 194.026C512.677 194.002 513.028 194.467 513.061 195.059Z" fill="#060633"/>
<path d="M528.315 200.22C526.735 200.873 525.077 200.358 524.615 199.072C524.154 197.786 525.056 196.215 526.657 195.561C528.258 194.908 529.896 195.418 530.357 196.705C530.819 197.991 529.879 199.566 528.315 200.22Z" fill="#FDAD9B"/>
<path d="M517.974 182.101C517.974 182.101 511.485 183.485 509.092 186.694C506.698 189.903 513.539 187.841 514.956 189.723C516.373 191.605 516.872 189.564 520.347 190.438C523.823 191.311 523.124 194.855 525.889 194.328C528.654 193.802 533.424 194.827 534.188 193.92C534.952 193.014 529.43 180.207 517.974 182.101Z" fill="#2F1A31"/>
<path d="M538.603 184.102C538.603 184.102 538.795 181.268 542.462 181.044C546.13 180.819 555.576 187.396 553.898 195.741C552.219 204.086 558.901 206.536 554.58 210.786C550.259 215.036 547.702 213.031 544.035 211.394C540.367 209.757 537.321 215.942 534.372 212.076C531.423 208.209 534.674 202.326 539.232 200.06C543.79 197.795 545.301 194.316 543.639 191.034C541.976 187.751 538.493 186.376 538.603 184.102Z" fill="#2F1A31"/>
<path d="M510.264 175.961C508.859 174.556 502.663 173.131 497.987 179.606C493.311 186.081 498.199 192.115 492.792 193.765C487.385 195.414 488.063 200.644 492.727 200.983C497.391 201.322 495.373 206.29 499.041 207.736C502.708 209.181 508.25 207.148 507.266 203.155C506.282 199.162 502.087 194.581 504.946 186.008C506.506 181.309 512.036 177.741 510.264 175.961Z" fill="#2F1A31"/>
<path d="M528.785 177.925C528.758 177.928 528.73 177.928 528.703 177.925C528.607 177.902 528.524 177.843 528.472 177.759C528.42 177.676 528.403 177.575 528.425 177.48C528.6 176.595 528.495 175.678 528.125 174.855C527.756 174.032 527.14 173.345 526.363 172.887C526.288 172.832 526.237 172.751 526.219 172.66C526.201 172.569 526.217 172.474 526.266 172.395C526.314 172.315 526.39 172.257 526.479 172.231C526.568 172.205 526.664 172.213 526.747 172.254C529.912 174.169 529.157 177.614 529.148 177.647C529.127 177.727 529.08 177.798 529.014 177.848C528.949 177.899 528.868 177.925 528.785 177.925V177.925Z" fill="#2F1A31"/>
<path d="M533.273 178.57C533.202 178.571 533.133 178.551 533.073 178.512C531.109 177.259 530.137 178.194 530.096 178.235C530.026 178.3 529.934 178.336 529.839 178.335C529.744 178.335 529.653 178.298 529.584 178.232C529.515 178.166 529.475 178.076 529.47 177.981C529.466 177.885 529.498 177.792 529.561 177.72C529.618 177.663 530.974 176.296 533.473 177.888C533.556 177.941 533.614 178.024 533.636 178.119C533.657 178.215 533.64 178.315 533.588 178.398C533.553 178.45 533.507 178.493 533.452 178.523C533.397 178.553 533.336 178.569 533.273 178.57Z" fill="#2F1A31"/>
<path d="M556.691 202.547C556.638 202.547 556.585 202.536 556.537 202.514C556.488 202.492 556.445 202.46 556.41 202.42C555.148 200.954 555.111 199.036 555.066 196.811C555.009 194.141 554.943 190.817 552.644 187.131C548.613 180.664 541.727 182.178 541.437 182.232C541.342 182.254 541.242 182.238 541.158 182.187C541.075 182.136 541.015 182.053 540.992 181.958C540.969 181.863 540.985 181.762 541.037 181.679C541.088 181.595 541.171 181.536 541.266 181.513C541.343 181.513 548.956 179.802 553.273 186.727C555.679 190.589 555.748 194.022 555.805 196.786C555.85 198.95 555.883 200.66 556.973 201.922C557.037 201.997 557.068 202.094 557.061 202.192C557.053 202.29 557.007 202.381 556.932 202.445C556.868 202.508 556.782 202.544 556.691 202.547V202.547Z" fill="#2F1A31"/>
<path d="M489.925 199.807C489.84 199.806 489.759 199.778 489.692 199.726C488.287 198.591 487.683 197.354 487.895 196.051C488.304 193.483 491.775 191.561 493.756 190.805C494.793 190.397 494.601 189.36 494.136 187.36C493.515 184.673 492.661 180.991 495.924 177.52C501.458 171.633 509.99 176.055 510.076 176.1C510.162 176.146 510.227 176.225 510.256 176.319C510.285 176.413 510.276 176.514 510.231 176.602C510.184 176.688 510.105 176.753 510.011 176.781C509.917 176.809 509.815 176.799 509.729 176.753C509.647 176.712 501.605 172.556 496.464 178.027C493.474 181.211 494.242 184.526 494.859 187.192C495.316 189.164 495.708 190.866 494.013 191.499C491.64 192.385 488.945 194.222 488.626 196.17C488.463 197.195 488.977 198.211 490.158 199.15C490.234 199.212 490.282 199.302 490.293 199.4C490.304 199.497 490.276 199.595 490.215 199.673C490.179 199.715 490.135 199.749 490.085 199.772C490.035 199.795 489.98 199.807 489.925 199.807Z" fill="#2F1A31"/>
<path d="M538.256 313.692C538.588 313.869 538.837 314.17 538.948 314.529C539.059 314.889 539.023 315.277 538.848 315.611L533.167 326.34C532.991 326.673 532.69 326.922 532.33 327.033C531.97 327.144 531.581 327.107 531.248 326.932C530.914 326.755 530.665 326.453 530.554 326.093C530.443 325.732 530.479 325.342 530.655 325.009L536.332 314.284C536.509 313.951 536.811 313.701 537.172 313.59C537.532 313.479 537.922 313.516 538.256 313.692Z" fill="#FDAD9B"/>
<path d="M535.038 311.989C535.37 312.167 535.619 312.469 535.73 312.829C535.841 313.189 535.805 313.578 535.63 313.912L529.279 325.907C529.102 326.24 528.8 326.489 528.44 326.6C528.079 326.711 527.689 326.675 527.355 326.499V326.499C527.023 326.321 526.774 326.019 526.663 325.659C526.552 325.299 526.588 324.91 526.763 324.576L533.114 312.581C533.291 312.248 533.593 311.999 533.953 311.888C534.314 311.777 534.704 311.813 535.038 311.989V311.989Z" fill="#FDAD9B"/>
<path d="M537.476 305.286L537.68 305.751C537.861 306.169 537.87 306.641 537.704 307.065C537.538 307.488 537.21 307.829 536.794 308.013L528.352 311.687C527.933 311.868 527.46 311.876 527.035 311.709C526.61 311.543 526.269 311.215 526.085 310.797L525.885 310.336C525.704 309.918 525.695 309.445 525.861 309.02C526.027 308.596 526.355 308.254 526.771 308.07L535.213 304.396C535.631 304.214 536.105 304.205 536.529 304.372C536.953 304.539 537.294 304.868 537.476 305.286V305.286Z" fill="#FDAD9B"/>
<path d="M531.819 310.287C532.151 310.464 532.4 310.765 532.511 311.124C532.622 311.484 532.586 311.872 532.411 312.206L527.319 321.824C527.143 322.157 526.841 322.406 526.481 322.517C526.122 322.628 525.732 322.592 525.399 322.416V322.416C525.234 322.329 525.087 322.21 524.968 322.066C524.849 321.922 524.759 321.756 524.704 321.578C524.649 321.399 524.63 321.211 524.647 321.025C524.665 320.839 524.719 320.658 524.807 320.493L529.896 310.879C530.073 310.546 530.375 310.296 530.735 310.185C531.096 310.074 531.486 310.111 531.819 310.287Z" fill="#FDAD9B"/>
<path d="M543.675 308.736C543.675 308.736 544.035 316.852 539.653 320.612C538.133 321.914 528.797 316.644 528.871 314.406C528.944 312.169 533.016 306.008 533.016 306.008L543.675 308.736Z" fill="#FDAD9B"/>
<path d="M541.458 315.374C541.79 315.55 542.038 315.85 542.148 316.21C542.259 316.569 542.222 316.957 542.046 317.289L536.965 326.887C536.789 327.219 536.489 327.467 536.13 327.578C535.771 327.689 535.383 327.653 535.05 327.479V327.479C534.718 327.302 534.469 327.001 534.358 326.641C534.247 326.282 534.283 325.893 534.458 325.56L539.538 315.962C539.715 315.63 540.017 315.381 540.376 315.271C540.736 315.161 541.125 315.198 541.458 315.374V315.374Z" fill="#FDAD9B"/>
<path d="M530.655 306.335C534.025 290.821 537.651 268.314 535.826 248.999C535.417 244.508 535.176 242.822 534.556 240.254C534.053 238.188 537.124 234.946 540.649 234.069C543.961 233.228 548.184 234.885 548.601 235.922C549.311 237.727 549.683 240.87 550.234 245.851C552.154 263.153 549.993 284.052 543.663 309.879L530.655 306.335Z" fill="#FDAD9B"/>
<g opacity="0.5">
<path opacity="0.5" d="M545.358 273.601C545.283 273.607 545.208 273.607 545.133 273.601C544.809 273.542 544.506 273.402 544.249 273.196C543.993 272.989 543.793 272.721 543.667 272.417C543.345 271.715 543.238 270.934 543.361 270.171C543.606 268.457 544.79 267.199 546.016 267.371C547.241 267.542 548.033 269.081 547.788 270.8C547.559 272.396 546.498 273.601 545.358 273.601ZM545.791 267.93C544.954 267.93 544.129 268.942 543.945 270.237C543.84 270.883 543.928 271.546 544.198 272.143C544.284 272.359 544.422 272.55 544.599 272.699C544.776 272.849 544.988 272.952 545.215 273.001C546.093 273.123 547.008 272.074 547.204 270.702C547.4 269.33 546.816 268.065 545.934 267.938L545.791 267.93Z" fill="#E08B65"/>
</g>
<g opacity="0.4">
<path opacity="0.4" d="M525.383 62.3702C525.383 62.3702 517.411 47.044 497.244 48.9629C477.076 50.8817 479.478 66.2446 469.88 64.8075C460.283 63.3704 446.83 64.8075 443.947 74.4057C441.063 84.0039 428.1 78.7251 427.61 86.8863C427.12 95.0474 442.497 100.808 460.283 93.6062C478.069 86.4045 486.695 99.2035 511.665 96.8723C536.635 94.5412 539.73 91.6752 554.51 93.1163C569.291 94.5575 568.94 84.4408 562.217 77.7167C555.495 70.9926 528.266 71.6499 525.383 62.3702Z" fill="#C8C1E1"/>
</g>
<g opacity="0.6">
<path opacity="0.6" d="M427.149 7.61009C427.149 7.61009 422.677 -0.963396 411.368 0.0899187C400.059 1.14323 401.403 9.78205 396.016 8.97369C390.629 8.16534 383.09 8.9737 381.477 14.3587C379.863 19.7436 372.59 16.7837 372.32 21.3603C372.051 25.9369 380.668 29.1663 390.633 25.1286C400.598 21.0909 405.442 28.2641 419.446 26.9658C433.45 25.6675 435.186 24.0508 443.473 24.8591C451.759 25.6675 451.567 19.9927 447.794 16.2244C444.02 12.4562 428.762 12.8154 427.149 7.61009Z" fill="#C8C1E1"/>
</g>
<g opacity="0.6">
<path opacity="0.6" d="M100.227 95.0065C100.227 95.0065 94.4849 83.9835 79.962 85.3552C65.439 86.727 67.1666 97.7991 60.2523 96.7621C53.338 95.7251 43.6546 96.7621 41.5758 103.678C39.497 110.594 30.165 106.789 29.8219 112.66C29.4788 118.531 40.5385 122.687 53.3339 117.498C66.1293 112.309 72.3534 121.527 90.3355 119.857C108.318 118.188 110.548 116.118 121.191 117.155C131.834 118.192 131.581 110.904 126.741 106.066C121.901 101.228 102.302 101.69 100.227 95.0065Z" fill="#C8C1E1"/>
</g>
<g opacity="0.4">
<path opacity="0.4" d="M204.379 34.1265C204.379 34.1265 191.151 11.2231 166.949 14.9872C142.746 18.7514 166.409 29.0763 134.684 34.1265C102.959 39.1767 95.9634 49.9304 110.482 58.5324C125.001 67.1345 148.668 42.9409 174.484 54.7723C200.299 66.6037 234.818 56.4911 204.379 34.1265Z" fill="#C8C1E1"/>
</g>
</svg>
